<svg width="49" height="48" viewBox="0 0 49 48" fill="none" xmlns="http://www.w3.org/2000/svg">
<g clip-path="url(#clip0_3075_33222)">
<rect x="0.5" width="48" height="48" rx="24" fill="#121D36"/>
<path fill-rule="evenodd" clip-rule="evenodd" d="M24.5199 0C11.2375 0 0.5 10.8167 0.5 24.1983C0.5 34.895 7.37988 43.9495 16.9241 47.1542C18.1174 47.3951 18.5545 46.6335 18.5545 45.9929C18.5545 45.4319 18.5151 43.509 18.5151 41.5055C11.8334 42.948 10.442 38.6209 10.442 38.6209C9.36818 35.8164 7.77715 35.0956 7.77715 35.0956C5.59022 33.6132 7.93645 33.6132 7.93645 33.6132C10.3623 33.7735 11.6353 36.0971 11.6353 36.0971C13.7824 39.7827 17.2422 38.7413 18.6341 38.1002C18.8328 36.5377 19.4695 35.456 20.1455 34.8552C14.8163 34.2942 9.20937 32.211 9.20937 22.9161C9.20937 20.2719 10.1632 18.1086 11.6746 16.4261C11.4361 15.8253 10.6008 13.3409 11.9135 10.0157C11.9135 10.0157 13.9417 9.3746 18.5146 12.4996C20.4725 11.9699 22.4916 11.7005 24.5199 11.6982C26.548 11.6982 28.6154 11.979 30.5246 12.4996C35.0981 9.3746 37.1262 10.0157 37.1262 10.0157C38.4389 13.3409 37.6031 15.8253 37.3646 16.4261C38.9158 18.1086 39.8303 20.2719 39.8303 22.9161C39.8303 32.211 34.2234 34.2539 28.8544 34.8552C29.7296 35.6163 30.4848 37.0583 30.4848 39.3421C30.4848 42.5871 30.4454 45.1915 30.4454 45.9924C30.4454 46.6335 30.883 47.3951 32.0758 47.1547C41.62 43.9491 48.4999 34.895 48.4999 24.1983C48.5392 10.8167 37.7624 0 24.5199 0Z" fill="#F8FAFC"/>
</g>
<defs>
<clipPath id="clip0_3075_33222">
<rect x="0.5" width="48" height="48" rx="24" fill="white"/>
</clipPath>
</defs>
</svg>
