<svg width="49" height="48" viewBox="0 0 49 48" fill="none" xmlns="http://www.w3.org/2000/svg">
<circle cx="24.5" cy="24" r="24" fill="#F8FAFC"/>
<g clip-path="url(#clip0_3075_33224)">
<path d="M24.6758 22.5059V26.0591H29.6136C29.3968 27.2018 28.7461 28.1694 27.7702 28.82L30.7479 31.1304C32.4828 29.529 33.4837 27.1768 33.4837 24.3827C33.4837 23.7321 33.4254 23.1064 33.3169 22.506L24.6758 22.5059Z" fill="#121D36"/>
<path d="M19.5332 25.9219L18.8616 26.436L16.4844 28.2876C17.9941 31.282 21.0883 33.3506 24.6749 33.3506C27.1521 33.3506 29.2289 32.5331 30.747 31.1319L27.7693 28.8214C26.9519 29.3719 25.9093 29.7056 24.6749 29.7056C22.2894 29.7056 20.2626 28.0958 19.5369 25.9272L19.5332 25.9219Z" fill="#121D36"/>
<path d="M16.4842 20.0625C15.8586 21.2969 15.5 22.6899 15.5 24.1745C15.5 25.6592 15.8586 27.0521 16.4842 28.2865C16.4842 28.2948 19.537 25.9177 19.537 25.9177C19.3535 25.3672 19.245 24.7834 19.245 24.1744C19.245 23.5655 19.3535 22.9816 19.537 22.4311L16.4842 20.0625Z" fill="#121D36"/>
<path d="M24.6751 18.6533C26.0263 18.6533 27.2274 19.1204 28.1866 20.0212L30.814 17.3939C29.2208 15.9092 27.1524 15 24.6751 15C21.0885 15 17.9941 17.0602 16.4844 20.0629L19.5371 22.4318C20.2627 20.2631 22.2896 18.6533 24.6751 18.6533Z" fill="#121D36"/>
</g>
<defs>
<clipPath id="clip0_3075_33224">
<rect width="18.35" height="18.35" fill="white" transform="translate(15.5 15)"/>
</clipPath>
</defs>
</svg>
