<svg width="49" height="48" viewBox="0 0 49 48" fill="none" xmlns="http://www.w3.org/2000/svg">
<circle cx="24.5" cy="24" r="23.5" fill="#F8FAFC" stroke="white"/>
<g clip-path="url(#clip0_3075_33228)">
<path d="M33.4959 32.9992L33.5004 32.9984V26.3969C33.5004 23.1674 32.8052 20.6797 29.0297 20.6797C27.2147 20.6797 25.9967 21.6757 25.4994 22.6199H25.4469V20.9812H21.8672V32.9984H25.5947V27.0479C25.5947 25.4812 25.8917 23.9662 27.8319 23.9662C29.7437 23.9662 29.7722 25.7542 29.7722 27.1484V32.9992H33.4959Z" fill="#121D36"/>
<path d="M15.7969 20.9844H19.5289V33.0016H15.7969V20.9844Z" fill="#121D36"/>
<path d="M17.6615 15C16.4683 15 15.5 15.9683 15.5 17.1615C15.5 18.3548 16.4683 19.3433 17.6615 19.3433C18.8548 19.3433 19.823 18.3548 19.823 17.1615C19.8223 15.9683 18.854 15 17.6615 15V15Z" fill="#121D36"/>
</g>
<defs>
<clipPath id="clip0_3075_33228">
<rect width="18" height="18" fill="white" transform="translate(15.5 15)"/>
</clipPath>
</defs>
</svg>
