<svg width="42" height="109" viewBox="0 0 42 109" fill="none" xmlns="http://www.w3.org/2000/svg">
<g clip-path="url(#clip0_1924_48948)">
<circle cx="39.3783" cy="2.36394" r="2.36394" transform="rotate(90 39.3783 2.36394)" fill="#F9674A"/>
<circle cx="11.0111" cy="2.36394" r="2.36394" transform="rotate(90 11.0111 2.36394)" fill="#F9674A"/>
<circle cx="25.1986" cy="2.36394" r="2.36394" transform="rotate(90 25.1986 2.36394)" fill="#F9674A"/>
<circle cx="39.3783" cy="59.0983" r="2.36394" transform="rotate(90 39.3783 59.0983)" fill="#F9674A"/>
<circle cx="11.0111" cy="59.0983" r="2.36394" transform="rotate(90 11.0111 59.0983)" fill="#F9674A"/>
<circle cx="25.1986" cy="59.0983" r="2.36394" transform="rotate(90 25.1986 59.0983)" fill="#F9674A"/>
<circle cx="39.3783" cy="16.5514" r="2.36394" transform="rotate(90 39.3783 16.5514)" fill="#F9674A"/>
<circle cx="11.0111" cy="16.5436" r="2.36394" transform="rotate(90 11.0111 16.5436)" fill="#F9674A"/>
<circle cx="25.1908" cy="16.5514" r="2.36394" transform="rotate(90 25.1908 16.5514)" fill="#F9674A"/>
<circle cx="39.3783" cy="73.2858" r="2.36394" transform="rotate(90 39.3783 73.2858)" fill="#F9674A"/>
<circle cx="11.0111" cy="73.278" r="2.36394" transform="rotate(90 11.0111 73.278)" fill="#F9674A"/>
<circle cx="25.1908" cy="73.278" r="2.36394" transform="rotate(90 25.1908 73.278)" fill="#F9674A"/>
<circle cx="39.3783" cy="30.7311" r="2.36394" transform="rotate(90 39.3783 30.7311)" fill="#F9674A"/>
<circle cx="11.0111" cy="30.7311" r="2.36394" transform="rotate(90 11.0111 30.7311)" fill="#F9674A"/>
<circle cx="25.1908" cy="30.7311" r="2.36394" transform="rotate(90 25.1908 30.7311)" fill="#F9674A"/>
<circle cx="39.3783" cy="87.4655" r="2.36394" transform="rotate(90 39.3783 87.4655)" fill="#F9674A"/>
<circle cx="11.0111" cy="87.4655" r="2.36394" transform="rotate(90 11.0111 87.4655)" fill="#F9674A"/>
<circle cx="25.1908" cy="87.4655" r="2.36394" transform="rotate(90 25.1908 87.4655)" fill="#F9674A"/>
<circle cx="39.3783" cy="44.9108" r="2.36394" transform="rotate(90 39.3783 44.9108)" fill="#F9674A"/>
<circle cx="11.0111" cy="44.9108" r="2.36394" transform="rotate(90 11.0111 44.9108)" fill="#F9674A"/>
<circle cx="25.1986" cy="44.9108" r="2.36394" transform="rotate(90 25.1986 44.9108)" fill="#F9674A"/>
<circle cx="39.3783" cy="101.653" r="2.36394" transform="rotate(90 39.3783 101.653)" fill="#F9674A"/>
<circle cx="11.0111" cy="101.645" r="2.36394" transform="rotate(90 11.0111 101.645)" fill="#F9674A"/>
<circle cx="25.1986" cy="101.645" r="2.36394" transform="rotate(90 25.1986 101.645)" fill="#F9674A"/>
</g>
<defs>
<clipPath id="clip0_1924_48948">
<rect width="108.741" height="108.741" fill="white" transform="translate(41.7422) rotate(90)"/>
</clipPath>
</defs>
</svg>
