<svg width="104" height="67" viewBox="0 0 104 67" fill="none" xmlns="http://www.w3.org/2000/svg">
<g clip-path="url(#clip0_1924_49081)">
<circle cx="101.636" cy="2.36394" r="2.36394" transform="rotate(90 101.636 2.36394)" fill="#F9674A"/>
<circle cx="44.9017" cy="2.36394" r="2.36394" transform="rotate(90 44.9017 2.36394)" fill="#F9674A"/>
<circle cx="73.2689" cy="2.36394" r="2.36394" transform="rotate(90 73.2689 2.36394)" fill="#F9674A"/>
<circle cx="16.5345" cy="2.36394" r="2.36394" transform="rotate(90 16.5345 2.36394)" fill="#F9674A"/>
<circle cx="87.4486" cy="2.36394" r="2.36394" transform="rotate(90 87.4486 2.36394)" fill="#F9674A"/>
<circle cx="30.7142" cy="2.36394" r="2.36394" transform="rotate(90 30.7142 2.36394)" fill="#F9674A"/>
<circle cx="59.0892" cy="2.36394" r="2.36394" transform="rotate(90 59.0892 2.36394)" fill="#F9674A"/>
<circle cx="2.35481" cy="2.36394" r="2.36394" transform="rotate(90 2.35481 2.36394)" fill="#F9674A"/>
<circle cx="101.636" cy="59.0983" r="2.36394" transform="rotate(90 101.636 59.0983)" fill="#F9674A"/>
<circle cx="44.9017" cy="59.0983" r="2.36394" transform="rotate(90 44.9017 59.0983)" fill="#F9674A"/>
<circle cx="73.2689" cy="59.0983" r="2.36394" transform="rotate(90 73.2689 59.0983)" fill="#F9674A"/>
<circle cx="16.5345" cy="59.0983" r="2.36394" transform="rotate(90 16.5345 59.0983)" fill="#F9674A"/>
<circle cx="87.4564" cy="59.0983" r="2.36394" transform="rotate(90 87.4564 59.0983)" fill="#F9674A"/>
<circle cx="30.722" cy="59.0983" r="2.36394" transform="rotate(90 30.722 59.0983)" fill="#F9674A"/>
<circle cx="59.0814" cy="59.0983" r="2.36394" transform="rotate(90 59.0814 59.0983)" fill="#F9674A"/>
<circle cx="2.347" cy="59.0983" r="2.36394" transform="rotate(90 2.347 59.0983)" fill="#F9674A"/>
<circle cx="101.636" cy="16.5514" r="2.36394" transform="rotate(90 101.636 16.5514)" fill="#F9674A"/>
<circle cx="44.9017" cy="16.5436" r="2.36394" transform="rotate(90 44.9017 16.5436)" fill="#F9674A"/>
<circle cx="73.2689" cy="16.5436" r="2.36394" transform="rotate(90 73.2689 16.5436)" fill="#F9674A"/>
<circle cx="16.5345" cy="16.5436" r="2.36394" transform="rotate(90 16.5345 16.5436)" fill="#F9674A"/>
<circle cx="87.4486" cy="16.5436" r="2.36394" transform="rotate(90 87.4486 16.5436)" fill="#F9674A"/>
<circle cx="30.7142" cy="16.5514" r="2.36394" transform="rotate(90 30.7142 16.5514)" fill="#F9674A"/>
<circle cx="59.0814" cy="16.5514" r="2.36394" transform="rotate(90 59.0814 16.5514)" fill="#F9674A"/>
<circle cx="2.347" cy="16.5436" r="2.36394" transform="rotate(90 2.347 16.5436)" fill="#F9674A"/>
<circle cx="101.636" cy="30.7311" r="2.36394" transform="rotate(90 101.636 30.7311)" fill="#F9674A"/>
<circle cx="44.9017" cy="30.7311" r="2.36394" transform="rotate(90 44.9017 30.7311)" fill="#F9674A"/>
<circle cx="73.2689" cy="30.7311" r="2.36394" transform="rotate(90 73.2689 30.7311)" fill="#F9674A"/>
<circle cx="16.5345" cy="30.7311" r="2.36394" transform="rotate(90 16.5345 30.7311)" fill="#F9674A"/>
<circle cx="87.4486" cy="30.7311" r="2.36394" transform="rotate(90 87.4486 30.7311)" fill="#F9674A"/>
<circle cx="30.7142" cy="30.7311" r="2.36394" transform="rotate(90 30.7142 30.7311)" fill="#F9674A"/>
<circle cx="59.0814" cy="30.7311" r="2.36394" transform="rotate(90 59.0814 30.7311)" fill="#F9674A"/>
<circle cx="2.347" cy="30.7311" r="2.36394" transform="rotate(90 2.347 30.7311)" fill="#F9674A"/>
<circle cx="101.636" cy="44.9108" r="2.36394" transform="rotate(90 101.636 44.9108)" fill="#F9674A"/>
<circle cx="44.9017" cy="44.9108" r="2.36394" transform="rotate(90 44.9017 44.9108)" fill="#F9674A"/>
<circle cx="73.2689" cy="44.9108" r="2.36394" transform="rotate(90 73.2689 44.9108)" fill="#F9674A"/>
<circle cx="16.5345" cy="44.9108" r="2.36394" transform="rotate(90 16.5345 44.9108)" fill="#F9674A"/>
<circle cx="87.4564" cy="44.9108" r="2.36394" transform="rotate(90 87.4564 44.9108)" fill="#F9674A"/>
<circle cx="30.722" cy="44.9108" r="2.36394" transform="rotate(90 30.722 44.9108)" fill="#F9674A"/>
<circle cx="59.0814" cy="44.9108" r="2.36394" transform="rotate(90 59.0814 44.9108)" fill="#F9674A"/>
<circle cx="2.347" cy="44.9186" r="2.36394" transform="rotate(90 2.347 44.9186)" fill="#F9674A"/>
</g>
<defs>
<clipPath id="clip0_1924_49081">
<rect width="67" height="104" fill="white" transform="translate(104) rotate(90)"/>
</clipPath>
</defs>
</svg>
