<svg width="603" height="513" viewBox="0 0 603 513" fill="none" xmlns="http://www.w3.org/2000/svg">
<path d="M0 21C0 9.40203 9.40202 0 21 0H603V513H21C9.40201 513 0 503.598 0 492V21Z" fill="#475569"/>
<path d="M148.648 268V245.6H157.768C160.157 245.6 162.248 246.08 164.04 247.04C165.853 247.979 167.261 249.291 168.264 250.976C169.267 252.661 169.768 254.603 169.768 256.8C169.768 258.997 169.267 260.939 168.264 262.624C167.261 264.309 165.853 265.632 164.04 266.592C162.248 267.531 160.157 268 157.768 268H148.648ZM151.016 265.952H157.64C159.624 265.952 161.341 265.568 162.792 264.8C164.264 264.011 165.405 262.933 166.216 261.568C167.027 260.181 167.432 258.592 167.432 256.8C167.432 254.987 167.027 253.397 166.216 252.032C165.405 250.667 164.264 249.6 162.792 248.832C161.341 248.043 159.624 247.648 157.64 247.648H151.016V265.952ZM185.134 268V264.288L185.038 263.68V257.472C185.038 256.043 184.632 254.944 183.822 254.176C183.032 253.408 181.848 253.024 180.27 253.024C179.182 253.024 178.147 253.205 177.166 253.568C176.184 253.931 175.352 254.411 174.67 255.008L173.646 253.312C174.499 252.587 175.523 252.032 176.718 251.648C177.912 251.243 179.171 251.04 180.494 251.04C182.67 251.04 184.344 251.584 185.518 252.672C186.712 253.739 187.31 255.371 187.31 257.568V268H185.134ZM179.342 268.16C178.083 268.16 176.984 267.957 176.046 267.552C175.128 267.125 174.424 266.549 173.934 265.824C173.443 265.077 173.198 264.224 173.198 263.264C173.198 262.389 173.4 261.6 173.806 260.896C174.232 260.171 174.915 259.595 175.854 259.168C176.814 258.72 178.094 258.496 179.694 258.496H185.486V260.192H179.758C178.136 260.192 177.006 260.48 176.366 261.056C175.747 261.632 175.438 262.347 175.438 263.2C175.438 264.16 175.811 264.928 176.558 265.504C177.304 266.08 178.35 266.368 179.694 266.368C180.974 266.368 182.072 266.08 182.99 265.504C183.928 264.907 184.611 264.053 185.038 262.944L185.55 264.512C185.123 265.621 184.376 266.507 183.31 267.168C182.264 267.829 180.942 268.16 179.342 268.16ZM197.993 268.16C196.606 268.16 195.294 267.968 194.057 267.584C192.819 267.179 191.849 266.677 191.145 266.08L192.169 264.288C192.851 264.8 193.726 265.248 194.793 265.632C195.859 265.995 196.979 266.176 198.153 266.176C199.753 266.176 200.905 265.931 201.609 265.44C202.313 264.928 202.665 264.256 202.665 263.424C202.665 262.805 202.462 262.325 202.057 261.984C201.673 261.621 201.161 261.355 200.521 261.184C199.881 260.992 199.166 260.832 198.377 260.704C197.587 260.576 196.798 260.427 196.009 260.256C195.241 260.085 194.537 259.84 193.897 259.52C193.257 259.179 192.734 258.72 192.329 258.144C191.945 257.568 191.753 256.8 191.753 255.84C191.753 254.923 192.009 254.101 192.521 253.376C193.033 252.651 193.779 252.085 194.761 251.68C195.763 251.253 196.979 251.04 198.409 251.04C199.497 251.04 200.585 251.189 201.673 251.488C202.761 251.765 203.657 252.139 204.361 252.608L203.369 254.432C202.622 253.92 201.822 253.557 200.969 253.344C200.115 253.109 199.262 252.992 198.409 252.992C196.894 252.992 195.774 253.259 195.049 253.792C194.345 254.304 193.993 254.965 193.993 255.776C193.993 256.416 194.185 256.917 194.569 257.28C194.974 257.643 195.497 257.931 196.137 258.144C196.798 258.336 197.513 258.496 198.281 258.624C199.07 258.752 199.849 258.912 200.617 259.104C201.406 259.275 202.121 259.52 202.761 259.84C203.422 260.139 203.945 260.576 204.329 261.152C204.734 261.707 204.937 262.443 204.937 263.36C204.937 264.341 204.659 265.195 204.105 265.92C203.571 266.624 202.782 267.179 201.737 267.584C200.713 267.968 199.465 268.16 197.993 268.16ZM217.682 251.04C219.047 251.04 220.242 251.307 221.266 251.84C222.311 252.352 223.122 253.141 223.698 254.208C224.295 255.275 224.594 256.619 224.594 258.24V268H222.322V258.464C222.322 256.693 221.874 255.36 220.978 254.464C220.103 253.547 218.866 253.088 217.266 253.088C216.071 253.088 215.026 253.333 214.13 253.824C213.255 254.293 212.572 254.987 212.082 255.904C211.612 256.8 211.378 257.888 211.378 259.168V268H209.106V244.256H211.378V255.808L210.93 254.944C211.463 253.728 212.316 252.779 213.49 252.096C214.663 251.392 216.06 251.04 217.682 251.04ZM239.403 268.16C237.931 268.16 236.608 267.829 235.435 267.168C234.261 266.485 233.333 265.504 232.651 264.224C231.968 262.944 231.627 261.397 231.627 259.584C231.627 257.749 231.968 256.203 232.651 254.944C233.355 253.664 234.293 252.693 235.467 252.032C236.64 251.371 237.952 251.04 239.403 251.04C241.003 251.04 242.432 251.403 243.691 252.128C244.971 252.832 245.973 253.824 246.699 255.104C247.424 256.384 247.787 257.877 247.787 259.584C247.787 261.269 247.424 262.763 246.699 264.064C245.973 265.344 244.971 266.347 243.691 267.072C242.432 267.797 241.003 268.16 239.403 268.16ZM230.731 268V244.256H233.003V256.16L232.683 259.552L232.907 262.944V268H230.731ZM239.243 266.144C240.437 266.144 241.504 265.877 242.443 265.344C243.381 264.789 244.128 264.021 244.683 263.04C245.237 262.037 245.515 260.885 245.515 259.584C245.515 258.261 245.237 257.109 244.683 256.128C244.128 255.147 243.381 254.389 242.443 253.856C241.504 253.301 240.437 253.024 239.243 253.024C238.048 253.024 236.971 253.301 236.01 253.856C235.072 254.389 234.325 255.147 233.771 256.128C233.237 257.109 232.971 258.261 232.971 259.584C232.971 260.885 233.237 262.037 233.771 263.04C234.325 264.021 235.072 264.789 236.01 265.344C236.971 265.877 238.048 266.144 239.243 266.144ZM259.266 268.16C257.645 268.16 256.183 267.797 254.882 267.072C253.602 266.325 252.589 265.312 251.842 264.032C251.095 262.731 250.722 261.248 250.722 259.584C250.722 257.899 251.095 256.416 251.842 255.136C252.589 253.856 253.602 252.853 254.882 252.128C256.162 251.403 257.623 251.04 259.266 251.04C260.93 251.04 262.402 251.403 263.682 252.128C264.983 252.853 265.997 253.856 266.722 255.136C267.469 256.416 267.842 257.899 267.842 259.584C267.842 261.248 267.469 262.731 266.722 264.032C265.997 265.312 264.983 266.325 263.682 267.072C262.381 267.797 260.909 268.16 259.266 268.16ZM259.266 266.144C260.482 266.144 261.559 265.877 262.498 265.344C263.437 264.789 264.173 264.021 264.706 263.04C265.261 262.037 265.538 260.885 265.538 259.584C265.538 258.261 265.261 257.109 264.706 256.128C264.173 255.147 263.437 254.389 262.498 253.856C261.559 253.301 260.493 253.024 259.298 253.024C258.103 253.024 257.037 253.301 256.098 253.856C255.159 254.389 254.413 255.147 253.858 256.128C253.303 257.109 253.026 258.261 253.026 259.584C253.026 260.885 253.303 262.037 253.858 263.04C254.413 264.021 255.159 264.789 256.098 265.344C257.037 265.877 258.093 266.144 259.266 266.144ZM282.915 268V264.288L282.819 263.68V257.472C282.819 256.043 282.413 254.944 281.603 254.176C280.813 253.408 279.629 253.024 278.051 253.024C276.963 253.024 275.928 253.205 274.947 253.568C273.965 253.931 273.133 254.411 272.451 255.008L271.427 253.312C272.28 252.587 273.304 252.032 274.499 251.648C275.693 251.243 276.952 251.04 278.275 251.04C280.451 251.04 282.125 251.584 283.299 252.672C284.493 253.739 285.091 255.371 285.091 257.568V268H282.915ZM277.123 268.16C275.864 268.16 274.765 267.957 273.827 267.552C272.909 267.125 272.205 266.549 271.715 265.824C271.224 265.077 270.979 264.224 270.979 263.264C270.979 262.389 271.181 261.6 271.587 260.896C272.013 260.171 272.696 259.595 273.635 259.168C274.595 258.72 275.875 258.496 277.475 258.496H283.267V260.192H277.539C275.917 260.192 274.787 260.48 274.147 261.056C273.528 261.632 273.219 262.347 273.219 263.2C273.219 264.16 273.592 264.928 274.339 265.504C275.085 266.08 276.131 266.368 277.475 266.368C278.755 266.368 279.853 266.08 280.771 265.504C281.709 264.907 282.392 264.053 282.819 262.944L283.331 264.512C282.904 265.621 282.157 266.507 281.091 267.168C280.045 267.829 278.723 268.16 277.123 268.16ZM291.262 268V251.2H293.438V255.776L293.214 254.976C293.683 253.696 294.472 252.725 295.582 252.064C296.691 251.381 298.067 251.04 299.71 251.04V253.248C299.624 253.248 299.539 253.248 299.454 253.248C299.368 253.227 299.283 253.216 299.198 253.216C297.427 253.216 296.04 253.76 295.038 254.848C294.035 255.915 293.534 257.44 293.534 259.424V268H291.262ZM310.387 268.16C308.787 268.16 307.347 267.797 306.067 267.072C304.809 266.347 303.817 265.344 303.091 264.064C302.366 262.763 302.003 261.269 302.003 259.584C302.003 257.877 302.366 256.384 303.091 255.104C303.817 253.824 304.809 252.832 306.067 252.128C307.347 251.403 308.787 251.04 310.387 251.04C311.859 251.04 313.171 251.371 314.323 252.032C315.497 252.693 316.425 253.664 317.107 254.944C317.811 256.203 318.163 257.749 318.163 259.584C318.163 261.397 317.822 262.944 317.139 264.224C316.457 265.504 315.529 266.485 314.355 267.168C313.203 267.829 311.881 268.16 310.387 268.16ZM310.547 266.144C311.742 266.144 312.809 265.877 313.747 265.344C314.707 264.789 315.454 264.021 315.987 263.04C316.542 262.037 316.819 260.885 316.819 259.584C316.819 258.261 316.542 257.109 315.987 256.128C315.454 255.147 314.707 254.389 313.747 253.856C312.809 253.301 311.742 253.024 310.547 253.024C309.374 253.024 308.318 253.301 307.379 253.856C306.441 254.389 305.694 255.147 305.139 256.128C304.585 257.109 304.307 258.261 304.307 259.584C304.307 260.885 304.585 262.037 305.139 263.04C305.694 264.021 306.441 264.789 307.379 265.344C308.318 265.877 309.374 266.144 310.547 266.144ZM316.883 268V262.944L317.107 259.552L316.787 256.16V244.256H319.059V268H316.883ZM334.242 268V245.6H342.626C344.524 245.6 346.156 245.909 347.522 246.528C348.887 247.125 349.932 248 350.658 249.152C351.404 250.283 351.778 251.659 351.778 253.28C351.778 254.859 351.404 256.224 350.658 257.376C349.932 258.507 348.887 259.381 347.522 260C346.156 260.619 344.524 260.928 342.626 260.928H335.554L336.61 259.808V268H334.242ZM336.61 260L335.554 258.848H342.562C344.802 258.848 346.498 258.368 347.65 257.408C348.823 256.427 349.41 255.051 349.41 253.28C349.41 251.488 348.823 250.101 347.65 249.12C346.498 248.139 344.802 247.648 342.562 247.648H335.554L336.61 246.528V260ZM355.981 268V251.2H358.157V255.776L357.933 254.976C358.402 253.696 359.191 252.725 360.301 252.064C361.41 251.381 362.786 251.04 364.429 251.04V253.248C364.343 253.248 364.258 253.248 364.173 253.248C364.087 253.227 364.002 253.216 363.917 253.216C362.146 253.216 360.759 253.76 359.757 254.848C358.754 255.915 358.253 257.44 358.253 259.424V268H355.981ZM375.554 268.16C373.805 268.16 372.269 267.797 370.946 267.072C369.623 266.325 368.589 265.312 367.842 264.032C367.095 262.731 366.722 261.248 366.722 259.584C366.722 257.92 367.074 256.448 367.778 255.168C368.503 253.888 369.485 252.885 370.722 252.16C371.981 251.413 373.389 251.04 374.946 251.04C376.525 251.04 377.922 251.403 379.138 252.128C380.375 252.832 381.346 253.835 382.05 255.136C382.754 256.416 383.106 257.899 383.106 259.584C383.106 259.691 383.095 259.808 383.074 259.936C383.074 260.043 383.074 260.16 383.074 260.288H368.45V258.592H381.858L380.962 259.264C380.962 258.048 380.695 256.971 380.162 256.032C379.65 255.072 378.946 254.325 378.05 253.792C377.154 253.259 376.119 252.992 374.946 252.992C373.794 252.992 372.759 253.259 371.842 253.792C370.925 254.325 370.21 255.072 369.698 256.032C369.186 256.992 368.93 258.091 368.93 259.328V259.68C368.93 260.96 369.207 262.091 369.762 263.072C370.338 264.032 371.127 264.789 372.13 265.344C373.154 265.877 374.317 266.144 375.618 266.144C376.642 266.144 377.591 265.963 378.466 265.6C379.362 265.237 380.13 264.683 380.77 263.936L382.05 265.408C381.303 266.304 380.365 266.987 379.234 267.456C378.125 267.925 376.898 268.16 375.554 268.16ZM391.738 268L384.282 251.2H386.65L393.498 266.784H392.378L399.322 251.2H401.562L394.074 268H391.738ZM404.762 268V251.2H407.034V268H404.762ZM405.914 247.488C405.444 247.488 405.05 247.328 404.73 247.008C404.41 246.688 404.25 246.304 404.25 245.856C404.25 245.408 404.41 245.035 404.73 244.736C405.05 244.416 405.444 244.256 405.914 244.256C406.383 244.256 406.778 244.405 407.098 244.704C407.418 245.003 407.578 245.376 407.578 245.824C407.578 246.293 407.418 246.688 407.098 247.008C406.799 247.328 406.404 247.488 405.914 247.488ZM420.492 268.16C418.742 268.16 417.206 267.797 415.884 267.072C414.561 266.325 413.526 265.312 412.78 264.032C412.033 262.731 411.66 261.248 411.66 259.584C411.66 257.92 412.012 256.448 412.716 255.168C413.441 253.888 414.422 252.885 415.66 252.16C416.918 251.413 418.326 251.04 419.884 251.04C421.462 251.04 422.86 251.403 424.076 252.128C425.313 252.832 426.284 253.835 426.988 255.136C427.692 256.416 428.044 257.899 428.044 259.584C428.044 259.691 428.033 259.808 428.012 259.936C428.012 260.043 428.012 260.16 428.012 260.288H413.388V258.592H426.796L425.9 259.264C425.9 258.048 425.633 256.971 425.1 256.032C424.588 255.072 423.884 254.325 422.988 253.792C422.092 253.259 421.057 252.992 419.884 252.992C418.732 252.992 417.697 253.259 416.78 253.792C415.862 254.325 415.148 255.072 414.636 256.032C414.124 256.992 413.868 258.091 413.868 259.328V259.68C413.868 260.96 414.145 262.091 414.7 263.072C415.276 264.032 416.065 264.789 417.068 265.344C418.092 265.877 419.254 266.144 420.556 266.144C421.58 266.144 422.529 265.963 423.404 265.6C424.3 265.237 425.068 264.683 425.708 263.936L426.988 265.408C426.241 266.304 425.302 266.987 424.172 267.456C423.062 267.925 421.836 268.16 420.492 268.16ZM435.78 268L429.444 251.2H431.62L437.38 266.784H436.388L442.308 251.2H444.26L450.116 266.784H449.124L454.98 251.2H457.06L450.692 268H448.548L442.916 253.344H443.588L437.924 268H435.78Z" fill="#F5F5F5"/>
</svg>
