<svg xmlns="http://www.w3.org/2000/svg" xmlns:xlink="http://www.w3.org/1999/xlink" viewBox="0 0 942.25532 217.87234">
  <defs>
    <style>
      .a {
        fill: black;
      }

      .b {
        fill: url(#a);
      }

      .c {
        fill: url(#b);
      }

      .d {
        fill: url(#c);
      }

      .e {
        fill: url(#d);
      }

      .f {
        fill: url(#e);
      }
    </style>
    <linearGradient id="a" x1="938.28111" y1="141.61488" x2="914.0083" y2="155.62879" gradientUnits="userSpaceOnUse">
      <stop offset="0" stop-color="#f9664b"/>
      <stop offset="0.28159" stop-color="#f8773a"/>
      <stop offset="0.71239" stop-color="#f78b25"/>
      <stop offset="1" stop-color="#f7921e"/>
    </linearGradient>
    <linearGradient id="b" x1="5661.02056" y1="-4356.44851" x2="5661.02056" y2="-4571.04559" gradientTransform="matrix(0.49621, -0.8682, 0.8682, 0.49621, 1199.32949, 7260.51379)" gradientUnits="userSpaceOnUse">
      <stop offset="0" stop-color="#f6841f"/>
      <stop offset="0.64917" stop-color="#f78c1e"/>
      <stop offset="1" stop-color="#f7921e"/>
    </linearGradient>
    <linearGradient id="c" x1="5663.3006" y1="-4452.78431" x2="5756.20389" y2="-4452.78434" gradientTransform="matrix(0.49621, -0.8682, 0.8682, 0.49621, 1199.32949, 7260.51379)" gradientUnits="userSpaceOnUse">
      <stop offset="0" stop-color="#f7921e"/>
      <stop offset="0.27674" stop-color="#f8822f"/>
      <stop offset="0.71152" stop-color="#f96d43"/>
      <stop offset="1" stop-color="#f9664b"/>
    </linearGradient>
    <linearGradient id="d" x1="5594.21578" y1="-4390.44789" x2="5641.03059" y2="-4470.68338" gradientTransform="matrix(0.49621, -0.8682, 0.8682, 0.49621, 1199.32949, 7260.51379)" gradientUnits="userSpaceOnUse">
      <stop offset="0" stop-color="#f6841f"/>
      <stop offset="0.04186" stop-color="#f6851f"/>
      <stop offset="0.45273" stop-color="#f78f1e"/>
      <stop offset="1" stop-color="#f7921e"/>
    </linearGradient>
    <linearGradient id="e" x1="136.28852" y1="16.22775" x2="70.04094" y2="54.47581" xlink:href="#a"/>
  </defs>
  <g>
    <path class="a" d="M263.44268,161.7793V56.04891h22.38345v85.55632h45.94363V161.7793Z"/>
    <path class="a" d="M340.1645,122.16812c0-23.4146,16.34519-40.49675,39.02282-40.49675,24.8855,0,41.37929,20.17407,37.69749,45.79806H361.074c1.32533,12.81047,7.51069,19.87837,17.96621,19.87837,8.98159,0,15.01986-4.41725,17.37633-12.22211h20.32116c-4.41725,17.8176-18.11329,27.97893-37.25622,27.97893C355.92133,163.10462,340.1645,146.75944,340.1645,122.16812Zm21.20522-7.65778h33.8686c-.58987-10.89678-6.77372-17.81759-16.49227-17.81759C369.17307,96.69275,363.13632,102.87659,361.36972,114.51034Z"/>
    <path class="a" d="M475.34625,152.06075c-5.15421,7.36208-12.95908,11.191-23.70878,11.191-16.34518,0-27.242-9.57146-27.242-24.29714,0-15.314,12.3692-23.56017,35.341-23.56017a103.2364,103.2364,0,0,1,13.10617.88254v-4.71143c0-8.836-5.00713-13.99023-13.54744-13.99023-8.836,0-14.13732,5.15422-14.87277,13.99023H426.015c1.17824-18.11329,14.28441-29.89414,33.28025-29.89414,20.61534,0,32.69036,11.33958,32.69036,30.62959V161.7793H475.34625Zm-19.29153-2.94484c10.45552,0,16.788-5.74409,16.788-14.87276v-5.597a75.056,75.056,0,0,0-11.78085-1.02963c-11.63375,0-17.37633,3.68028-17.37633,10.74969C443.68551,144.99285,448.39846,149.11591,456.05472,149.11591Z"/>
    <path class="a" d="M524.8261,161.7793H504.35785V83.1453H523.2066v15.167c5.74257-10.01425,17.96469-16.051,30.62959-16.051v21.20522c-17.37633-1.32533-29.01009,2.79774-29.01009,20.17407Z"/>
    <path class="a" d="M584.90553,161.7793H564.43728V83.1453H583.286v11.191c5.74257-7.80486,13.84162-12.6649,24.15-12.6649,15.7553,0,26.65361,10.30843,26.65361,29.30427V161.7793H613.767V117.89645c0-11.63224-4.56434-18.11178-13.84162-18.11178-8.09905,0-15.01986,6.47954-15.01986,19.14292Z"/>
    <path class="a" d="M644.49365,161.7793V56.04891h22.38346V97.72237h45.79653V56.04891h22.38194V161.7793H712.67364V117.01391H666.87711V161.7793Z"/>
    <path class="a" d="M794.69374,83.1453H815.0149v78.634H796.31476V151.47087c-4.27167,6.92081-12.95908,11.78084-22.97333,11.78084-15.7553,0-27.242-9.57146-27.242-30.03971V83.1453h20.46825V129.236c0,11.04388,5.4484,15.90392,13.69605,15.90392,7.36208,0,14.43-5.89119,14.43-16.49379Z"/>
    <path class="b" d="M926.19672,162.51626c-8.099,0-13.84162-5.74409-13.84162-13.84313,0-8.24614,5.74258-13.98871,13.84162-13.98871s13.69605,5.74257,13.69605,13.98871C939.89277,156.77217,934.29577,162.51626,926.19672,162.51626Z"/>
    <path class="a" d="M869.649,81.67137a27.87409,27.87409,0,0,0-23.1189,11.63376V67.68721l-20.15815-11.6383h-.31011V161.7793h18.84875V150.44124c6.03675,8.24614,14.57859,12.81047,24.73841,12.81047,21.20522,0,34.89975-17.81759,34.89975-40.78941C904.54872,99.19631,890.85419,81.67137,869.649,81.67137Zm-4.56434,63.32148c-10.16134,0-18.40747-7.952-18.40747-22.82473s8.54031-22.38345,18.40747-22.38345c10.01273,0,18.406,7.65777,18.406,22.67763C883.49059,137.188,875.09736,144.99285,865.08463,144.99285Z"/>
    <g>
      <g>
        <path class="c" d="M96.08451,109.113l-.01946.0341L2.96636,55.80332a4.33126,4.33126,0,0,0-.60379,2.21583l.3381,102.963a4.33845,4.33845,0,0,0,2.18155,3.75l89.3374,51.18846a4.33811,4.33811,0,0,0,4.33832-.01419l88.99939-51.7742a4.3323,4.3323,0,0,0,1.60593-1.64075l0,0,.00017-.00046.0002-.0002,0-.00007a4.33157,4.33157,0,0,0,.60345-2.2151l-.338-102.963a4.32971,4.32971,0,0,0-.55765-2.10548Z"/>
        <path class="d" d="M96.08935,109.11554l-.03.05254,93.1521,53.23978a4.32252,4.32252,0,0,0,.56031-2.12966l-.338-102.963a4.32989,4.32989,0,0,0-.55765-2.10541Z"/>
        <path class="e" d="M96.02333,109.23105l.03-.05255,93.15209,53.23978a4.3224,4.3224,0,0,1-1.55056,1.56369L98.53062,215.92323a3.67007,3.67007,0,0,1-1.918.57107Z"/>
      </g>
      <path class="f" d="M96.26581,77.33882c-22.10466,0-37.77783-15.67731-37.77783-37.782,0-22.50611,15.67317-38.17928,37.77783-38.17928s37.38051,15.67317,37.38051,38.17928C133.64632,61.66151,118.37047,77.33882,96.26581,77.33882Z"/>
    </g>
  </g>
</svg>
