<svg xmlns="http://www.w3.org/2000/svg" viewBox="0 0 272.97872 307.10638">
    <defs>
        <style>
            .a {
            fill: url(#a);
            }

            .b {
            fill: url(#b);
            }

            .c {
            fill: url(#c);
            }

            .d {
            fill: url(#d);
            }
        </style>
        <linearGradient id="a" x1="4831.59175" y1="-2757.9831" x2="4831.59175" y2="-3051.43265"
                        gradientTransform="matrix(0.49621, -0.8682, 0.8682, 0.49621, 311.3088, 5819.38595)"
                        gradientUnits="userSpaceOnUse">
            <stop offset="0" stop-color="#f48320"/>
            <stop offset="0.61878" stop-color="#f58b20"/>
            <stop offset="1" stop-color="#f69220"/>
        </linearGradient>
        <linearGradient id="b" x1="4834.70965" y1="-2889.71553" x2="4961.74972" y2="-2889.71558"
                        gradientTransform="matrix(0.49621, -0.8682, 0.8682, 0.49621, 311.3088, 5819.38595)"
                        gradientUnits="userSpaceOnUse">
            <stop offset="0" stop-color="#f69220"/>
            <stop offset="0.27674" stop-color="#f48131"/>
            <stop offset="0.71152" stop-color="#f26d45"/>
            <stop offset="1" stop-color="#f1654d"/>
        </linearGradient>
        <linearGradient id="c" x1="4740.23994" y1="-2804.47536" x2="4804.25659" y2="-2914.19292"
                        gradientTransform="matrix(0.49621, -0.8682, 0.8682, 0.49621, 311.3088, 5819.38595)"
                        gradientUnits="userSpaceOnUse">
            <stop offset="0" stop-color="#f48320"/>
            <stop offset="0.06747" stop-color="#f48520"/>
            <stop offset="0.46732" stop-color="#f68f20"/>
            <stop offset="1" stop-color="#f69220"/>
        </linearGradient>
        <linearGradient id="d" x1="191.48984" y1="26.7796" x2="100.89996" y2="79.08169" gradientUnits="userSpaceOnUse">
            <stop offset="0" stop-color="#f1654d"/>
            <stop offset="0.28159" stop-color="#f3763c"/>
            <stop offset="0.71239" stop-color="#f58b27"/>
            <stop offset="1" stop-color="#f69220"/>
        </linearGradient>
    </defs>
    <g>
        <g>
            <path d="M136.51309,153.79494l-.02661.04663L9.17921,80.897a5.92262,5.92262,0,0,0-.82564,3.03l.46232,140.79612a5.93259,5.93259,0,0,0,2.98316,5.12792L133.963,299.84841a5.93212,5.93212,0,0,0,5.9324-.0194l121.70171-70.79833a5.92443,5.92443,0,0,0,2.196-2.24364l0,0,.00025-.00063.00026-.00027,0-.0001a5.92324,5.92324,0,0,0,.82518-3.029l-.46223-140.79616a5.92093,5.92093,0,0,0-.76255-2.87913Z"/>
            <animate dur="5.5s" attributeName="fill" values="white; 	#3e1c00; white;" repeatCount="indefinite"/>
        </g>
        <g>
            <path d="M136.42944,153.95642l.04107-.07185L263.85081,226.687a5.91063,5.91063,0,0,1-2.12031,2.13826L139.858,299.852a5.01871,5.01871,0,0,1-2.62278.7809Z"/>
            <animate dur="5.5s" attributeName="fill" values="white; #633200; white;" repeatCount="indefinite"/>
        </g>

        <g style="transform-box: fill-box; transform-origin:50% 50%">
            <path d="M136.761,110.34557c-30.22689,0-51.65907-21.43784-51.65907-51.66473,0-30.77586,21.43218-52.208,51.65907-52.204s51.11577,21.43218,51.11577,52.208C187.87678,88.90773,166.98791,110.34557,136.761,110.34557Z"/>
            <animate dur="5.5s" attributeName="fill" values="white;  #f78b25; white;" repeatCount="indefinite"/>
            <animateTransform attributeName="transform" type="rotate" values="0;360;" dur="3s"
                              repeatCount="indefinite"/>
        </g>
    </g>
</svg>
