<svg width="49" height="49" viewBox="0 0 49 49" fill="none" xmlns="http://www.w3.org/2000/svg">
<circle cx="24.666" cy="24.5" r="23.5" fill="white" stroke="white"/>
<path d="M36.1739 13.9389C34.0681 12.9572 31.7881 12.2447 29.4131 11.8331C29.3923 11.8324 29.3716 11.8363 29.3524 11.8445C29.3333 11.8527 29.3162 11.865 29.3023 11.8806C29.0173 12.4031 28.6848 13.0839 28.4631 13.6064C25.944 13.2264 23.3822 13.2264 20.8631 13.6064C20.6414 13.0681 20.3089 12.4031 20.0081 11.8806C19.9923 11.8489 19.9448 11.8331 19.8973 11.8331C17.5223 12.2447 15.2581 12.9572 13.1364 13.9389C13.1206 13.9389 13.1048 13.9547 13.0889 13.9706C8.78228 20.4147 7.59478 26.6847 8.18061 32.8914C8.18061 32.9231 8.19644 32.9547 8.22811 32.9706C11.0781 35.0606 13.8173 36.3272 16.5248 37.1664C16.5723 37.1822 16.6198 37.1664 16.6356 37.1347C17.2689 36.2639 17.8389 35.3456 18.3298 34.3797C18.3614 34.3164 18.3298 34.2531 18.2664 34.2372C17.3639 33.8889 16.5089 33.4772 15.6698 33.0022C15.6064 32.9706 15.6064 32.8756 15.6539 32.8281C15.8281 32.7014 16.0023 32.5589 16.1764 32.4322C16.2081 32.4006 16.2556 32.4006 16.2873 32.4164C21.7339 34.9022 27.6081 34.9022 32.9914 32.4164C33.0231 32.4006 33.0706 32.4006 33.1023 32.4322C33.2764 32.5747 33.4506 32.7014 33.6248 32.8439C33.6881 32.8914 33.6881 32.9864 33.6089 33.0181C32.7856 33.5089 31.9148 33.9047 31.0123 34.2531C30.9489 34.2689 30.9331 34.3481 30.9489 34.3956C31.4556 35.3614 32.0256 36.2797 32.6431 37.1506C32.6906 37.1664 32.7381 37.1822 32.7856 37.1664C35.5089 36.3272 38.2481 35.0606 41.0981 32.9706C41.1298 32.9547 41.1456 32.9231 41.1456 32.8914C41.8423 25.7189 39.9898 19.4964 36.2373 13.9706C36.2214 13.9547 36.2056 13.9389 36.1739 13.9389ZM19.1531 29.1072C17.5223 29.1072 16.1606 27.6031 16.1606 25.7506C16.1606 23.8981 17.4906 22.3939 19.1531 22.3939C20.8314 22.3939 22.1614 23.9139 22.1456 25.7506C22.1456 27.6031 20.8156 29.1072 19.1531 29.1072ZM30.1889 29.1072C28.5581 29.1072 27.1964 27.6031 27.1964 25.7506C27.1964 23.8981 28.5264 22.3939 30.1889 22.3939C31.8673 22.3939 33.1973 23.9139 33.1814 25.7506C33.1814 27.6031 31.8673 29.1072 30.1889 29.1072Z" fill="#070B15"/>
</svg>
