<svg width="49" height="49" viewBox="0 0 49 49" fill="none" xmlns="http://www.w3.org/2000/svg">
<g clip-path="url(#clip0_1939_69429)">
<path d="M48.6662 24.6471C48.6662 11.3091 37.9202 0.49707 24.6662 0.49707C11.4062 0.50007 0.660156 11.3091 0.660156 24.6501C0.660156 36.7011 9.43816 46.6911 20.9102 48.5031V31.6281H14.8202V24.6501H20.9162V19.3251C20.9162 13.2741 24.5012 9.93207 29.9822 9.93207C32.6102 9.93207 35.3552 10.4031 35.3552 10.4031V16.3431H32.3282C29.3492 16.3431 28.4192 18.2061 28.4192 20.1171V24.6471H35.0732L34.0112 31.6251H28.4162V48.5001C39.8882 46.6881 48.6662 36.6981 48.6662 24.6471Z" fill="white"/>
</g>
<defs>
<clipPath id="clip0_1939_69429">
<rect width="48" height="48" fill="white" transform="translate(0.666016 0.5)"/>
</clipPath>
</defs>
</svg>
