<svg width="49" height="49" viewBox="0 0 49 49" fill="none" xmlns="http://www.w3.org/2000/svg">
<g clip-path="url(#clip0_1939_69417)">
<rect x="0.666016" y="0.5" width="48" height="48" rx="24" fill="#070B15"/>
<path fill-rule="evenodd" clip-rule="evenodd" d="M24.6859 0.5C11.4035 0.5 0.666016 11.3167 0.666016 24.6983C0.666016 35.395 7.5459 44.4495 17.0901 47.6542C18.2834 47.8951 18.7205 47.1335 18.7205 46.4929C18.7205 45.9319 18.6812 44.009 18.6812 42.0055C11.9994 43.448 10.608 39.1209 10.608 39.1209C9.5342 36.3164 7.94317 35.5956 7.94317 35.5956C5.75624 34.1132 8.10247 34.1132 8.10247 34.1132C10.5283 34.2735 11.8013 36.5971 11.8013 36.5971C13.9484 40.2827 17.4082 39.2413 18.8001 38.6002C18.9988 37.0377 19.6355 35.956 20.3115 35.3552C14.9824 34.7942 9.37539 32.711 9.37539 23.4161C9.37539 20.7719 10.3292 18.6086 11.8406 16.9261C11.6021 16.3253 10.7668 13.8409 12.0796 10.5157C12.0796 10.5157 14.1077 9.8746 18.6807 12.9996C20.6385 12.4699 22.6576 12.2005 24.6859 12.1982C26.714 12.1982 28.7815 12.479 30.6906 12.9996C35.2641 9.8746 37.2922 10.5157 37.2922 10.5157C38.6049 13.8409 37.7691 16.3253 37.5307 16.9261C39.0819 18.6086 39.9964 20.7719 39.9964 23.4161C39.9964 32.711 34.3894 34.7539 29.0204 35.3552C29.8956 36.1163 30.6508 37.5583 30.6508 39.8421C30.6508 43.0871 30.6114 45.6915 30.6114 46.4924C30.6114 47.1335 31.049 47.8951 32.2418 47.6547C41.786 44.4491 48.6659 35.395 48.6659 24.6983C48.7052 11.3167 37.9284 0.5 24.6859 0.5Z" fill="#F8FAFC"/>
</g>
<defs>
<clipPath id="clip0_1939_69417">
<rect x="0.666016" y="0.5" width="48" height="48" rx="24" fill="white"/>
</clipPath>
</defs>
</svg>
