<svg width="48" height="48" viewBox="0 0 48 48" fill="none" xmlns="http://www.w3.org/2000/svg">
<circle cx="24" cy="24" r="24" fill="white"/>
<g clip-path="url(#clip0_3075_33808)">
<path d="M24.1758 22.5059V26.0591H29.1136C28.8968 27.2018 28.2461 28.1694 27.2702 28.82L30.2479 31.1304C31.9828 29.529 32.9837 27.1768 32.9837 24.3827C32.9837 23.7321 32.9254 23.1064 32.8169 22.506L24.1758 22.5059Z" fill="#121D36"/>
<path d="M19.0332 25.9219L18.3616 26.436L15.9844 28.2876C17.4941 31.282 20.5883 33.3506 24.1749 33.3506C26.6521 33.3506 28.7289 32.5331 30.247 31.1319L27.2693 28.8214C26.4519 29.3719 25.4093 29.7056 24.1749 29.7056C21.7894 29.7056 19.7626 28.0958 19.0369 25.9272L19.0332 25.9219Z" fill="#121D36"/>
<path d="M15.9842 20.0625C15.3586 21.2969 15 22.6899 15 24.1745C15 25.6592 15.3586 27.0521 15.9842 28.2865C15.9842 28.2948 19.037 25.9177 19.037 25.9177C18.8535 25.3672 18.745 24.7834 18.745 24.1744C18.745 23.5655 18.8535 22.9816 19.037 22.4311L15.9842 20.0625Z" fill="#121D36"/>
<path d="M24.1751 18.6533C25.5263 18.6533 26.7274 19.1204 27.6866 20.0212L30.314 17.3939C28.7208 15.9092 26.6524 15 24.1751 15C20.5885 15 17.4941 17.0602 15.9844 20.0629L19.0371 22.4318C19.7627 20.2631 21.7896 18.6533 24.1751 18.6533Z" fill="#121D36"/>
</g>
<defs>
<clipPath id="clip0_3075_33808">
<rect width="18.35" height="18.35" fill="white" transform="translate(15 15)"/>
</clipPath>
</defs>
</svg>
