<svg width="49" height="49" viewBox="0 0 49 49" fill="none" xmlns="http://www.w3.org/2000/svg">
<circle cx="24.666" cy="24.5" r="23.5" fill="#F8FAFC" stroke="white"/>
<g clip-path="url(#clip0_1939_69422)">
<path d="M28.551 15.5H20.134C17.3946 15.5 15.166 17.7286 15.166 20.468V28.8851C15.166 31.6243 17.3946 33.8529 20.134 33.8529H28.5511C31.2903 33.8529 33.5189 31.6243 33.5189 28.8851V20.468C33.5189 17.7286 31.2903 15.5 28.551 15.5V15.5ZM32.443 28.8851C32.443 31.0311 30.6971 32.777 28.551 32.777H20.134C17.9879 32.777 16.2419 31.0311 16.2419 28.8851V20.468C16.2419 18.3219 17.9879 16.5759 20.134 16.5759H28.5511C30.6971 16.5759 32.443 18.3219 32.443 20.468V28.8851Z" fill="#070B15"/>
<path d="M24.3425 19.6582C21.5753 19.6582 19.3242 21.9093 19.3242 24.6764C19.3242 27.4435 21.5753 29.6947 24.3425 29.6947C27.1096 29.6947 29.3607 27.4435 29.3607 24.6764C29.3607 21.9093 27.1096 19.6582 24.3425 19.6582ZM24.3425 28.6187C22.1688 28.6187 20.4001 26.8503 20.4001 24.6764C20.4001 22.5027 22.1688 20.7341 24.3425 20.7341C26.5163 20.7341 28.2848 22.5027 28.2848 24.6764C28.2848 26.8503 26.5163 28.6187 24.3425 28.6187Z" fill="#070B15"/>
<path d="M29.4809 17.876C28.6631 17.876 27.998 18.5412 27.998 19.3588C27.998 20.1765 28.6631 20.8418 29.4809 20.8418C30.2986 20.8418 30.9638 20.1765 30.9638 19.3588C30.9638 18.5411 30.2986 17.876 29.4809 17.876ZM29.4809 19.7657C29.2566 19.7657 29.074 19.5831 29.074 19.3588C29.074 19.1344 29.2566 18.9519 29.4809 18.9519C29.7053 18.9519 29.8879 19.1344 29.8879 19.3588C29.8879 19.5831 29.7053 19.7657 29.4809 19.7657Z" fill="#070B15"/>
</g>
<defs>
<clipPath id="clip0_1939_69422">
<rect width="18.3529" height="18.3529" fill="white" transform="translate(15.166 15.5)"/>
</clipPath>
</defs>
</svg>
