<svg width="49" height="48" viewBox="0 0 49 48" fill="none" xmlns="http://www.w3.org/2000/svg">
<circle cx="24.666" cy="24" r="23.5" fill="#F8FAFC" stroke="white"/>
<g clip-path="url(#clip0_2471_4833)">
<path d="M24.666 14.1609C27.8723 14.1609 28.252 14.175 29.5129 14.2312C30.6848 14.2828 31.3176 14.4797 31.7395 14.6437C32.2973 14.8594 32.7004 15.1219 33.1176 15.5391C33.5395 15.9609 33.7973 16.3594 34.0129 16.9172C34.177 17.3391 34.3738 17.9766 34.4254 19.1437C34.4816 20.4094 34.4957 20.7891 34.4957 23.9906C34.4957 27.1969 34.4816 27.5766 34.4254 28.8375C34.3738 30.0094 34.177 30.6422 34.0129 31.0641C33.7973 31.6219 33.5348 32.025 33.1176 32.4422C32.6957 32.8641 32.2973 33.1219 31.7395 33.3375C31.3176 33.5016 30.6801 33.6984 29.5129 33.75C28.2473 33.8062 27.8676 33.8203 24.666 33.8203C21.4598 33.8203 21.0801 33.8062 19.8191 33.75C18.6473 33.6984 18.0145 33.5016 17.5926 33.3375C17.0348 33.1219 16.6316 32.8594 16.2145 32.4422C15.7926 32.0203 15.5348 31.6219 15.3191 31.0641C15.1551 30.6422 14.9582 30.0047 14.9066 28.8375C14.8504 27.5719 14.8363 27.1922 14.8363 23.9906C14.8363 20.7844 14.8504 20.4047 14.9066 19.1437C14.9582 17.9719 15.1551 17.3391 15.3191 16.9172C15.5348 16.3594 15.7973 15.9562 16.2145 15.5391C16.6363 15.1172 17.0348 14.8594 17.5926 14.6437C18.0145 14.4797 18.652 14.2828 19.8191 14.2312C21.0801 14.175 21.4598 14.1609 24.666 14.1609ZM24.666 12C21.4082 12 21.0004 12.0141 19.7207 12.0703C18.4457 12.1266 17.5691 12.3328 16.8098 12.6281C16.0176 12.9375 15.3473 13.3453 14.6816 14.0156C14.0113 14.6812 13.6035 15.3516 13.2941 16.1391C12.9988 16.9031 12.7926 17.775 12.7363 19.05C12.6801 20.3344 12.666 20.7422 12.666 24C12.666 27.2578 12.6801 27.6656 12.7363 28.9453C12.7926 30.2203 12.9988 31.0969 13.2941 31.8562C13.6035 32.6484 14.0113 33.3187 14.6816 33.9844C15.3473 34.65 16.0176 35.0625 16.8051 35.3672C17.5691 35.6625 18.441 35.8687 19.716 35.925C20.9957 35.9812 21.4035 35.9953 24.6613 35.9953C27.9191 35.9953 28.327 35.9812 29.6066 35.925C30.8816 35.8687 31.7582 35.6625 32.5176 35.3672C33.3051 35.0625 33.9754 34.65 34.641 33.9844C35.3066 33.3187 35.7191 32.6484 36.0238 31.8609C36.3191 31.0969 36.5254 30.225 36.5816 28.95C36.6379 27.6703 36.652 27.2625 36.652 24.0047C36.652 20.7469 36.6379 20.3391 36.5816 19.0594C36.5254 17.7844 36.3191 16.9078 36.0238 16.1484C35.7285 15.3516 35.3207 14.6812 34.6504 14.0156C33.9848 13.35 33.3145 12.9375 32.527 12.6328C31.7629 12.3375 30.891 12.1312 29.616 12.075C28.3316 12.0141 27.9238 12 24.666 12Z" fill="#070B15"/>
<path d="M24.666 17.8359C21.2629 17.8359 18.502 20.5969 18.502 24C18.502 27.4031 21.2629 30.1641 24.666 30.1641C28.0691 30.1641 30.8301 27.4031 30.8301 24C30.8301 20.5969 28.0691 17.8359 24.666 17.8359ZM24.666 27.9984C22.4582 27.9984 20.6676 26.2078 20.6676 24C20.6676 21.7922 22.4582 20.0016 24.666 20.0016C26.8738 20.0016 28.6645 21.7922 28.6645 24C28.6645 26.2078 26.8738 27.9984 24.666 27.9984Z" fill="#070B15"/>
<path d="M32.5129 17.5923C32.5129 18.3891 31.866 19.0313 31.0738 19.0313C30.277 19.0313 29.6348 18.3845 29.6348 17.5923C29.6348 16.7954 30.2816 16.1532 31.0738 16.1532C31.866 16.1532 32.5129 16.8001 32.5129 17.5923Z" fill="#070B15"/>
</g>
<defs>
<clipPath id="clip0_2471_4833">
<rect width="24" height="24" fill="white" transform="translate(12.666 12)"/>
</clipPath>
</defs>
</svg>
