<svg width="49" height="49" viewBox="0 0 49 49" fill="none" xmlns="http://www.w3.org/2000/svg">
<circle cx="24.666" cy="24.5" r="23.5" fill="#F8FAFC" stroke="white"/>
<g clip-path="url(#clip0_1939_69410)">
<path d="M33.662 33.5002L33.6665 33.4994V26.8979C33.6665 23.6684 32.9712 21.1807 29.1957 21.1807C27.3807 21.1807 26.1627 22.1767 25.6655 23.1209H25.613V21.4822H22.0332V33.4994H25.7607V27.5489C25.7607 25.9822 26.0577 24.4672 27.998 24.4672C29.9097 24.4672 29.9382 26.2552 29.9382 27.6494V33.5002H33.662Z" fill="#070B15"/>
<path d="M15.9629 21.4824H19.6949V33.4997H15.9629V21.4824Z" fill="#070B15"/>
<path d="M17.8275 15.5C16.6343 15.5 15.666 16.4683 15.666 17.6615C15.666 18.8548 16.6343 19.8433 17.8275 19.8433C19.0208 19.8433 19.989 18.8548 19.989 17.6615C19.9883 16.4683 19.02 15.5 17.8275 15.5V15.5Z" fill="#070B15"/>
</g>
<defs>
<clipPath id="clip0_1939_69410">
<rect width="18" height="18" fill="white" transform="translate(15.666 15.5)"/>
</clipPath>
</defs>
</svg>
