<svg width="57" height="56" viewBox="0 0 57 56" fill="none" xmlns="http://www.w3.org/2000/svg">
<path d="M40.1693 35.5719V51.6066C40.1693 51.813 40.1146 52.0158 40.0107 52.1941C39.9068 52.3725 39.7574 52.5201 39.5778 52.6218C39.3982 52.7236 39.1949 52.7759 38.9885 52.7734C38.782 52.7709 38.58 52.7137 38.4029 52.6076L28.5026 46.6669L18.6023 52.6076C18.425 52.7138 18.2228 52.771 18.0162 52.7734C17.8096 52.7758 17.606 52.7233 17.4264 52.6213C17.2467 52.5192 17.0974 52.3713 16.9936 52.1926C16.8899 52.0139 16.8355 51.8109 16.8359 51.6043V35.5743C13.817 33.1571 11.6233 29.862 10.558 26.1442C9.49276 22.4264 9.60857 18.4695 10.8894 14.8204C12.1703 11.1712 14.5529 8.01001 17.7081 5.77358C20.8633 3.53715 24.6352 2.33594 28.5026 2.33594C32.37 2.33594 36.1419 3.53715 39.2971 5.77358C42.4523 8.01001 44.8349 11.1712 46.1158 14.8204C47.3966 18.4695 47.5125 22.4264 46.4472 26.1442C45.382 29.862 43.1883 33.1571 40.1693 35.5743M21.5026 38.3136V45.4279L28.5026 41.2279L35.5026 45.4279V38.3113C33.2784 39.21 30.9015 39.6703 28.5026 39.6669C26.1037 39.6703 23.7268 39.2123 21.5026 38.3136ZM28.5026 35.0003C32.2156 35.0003 35.7766 33.5253 38.4021 30.8998C41.0276 28.2743 42.5026 24.7133 42.5026 21.0003C42.5026 17.2872 41.0276 13.7263 38.4021 11.1008C35.7766 8.47526 32.2156 7.00027 28.5026 7.00027C24.7896 7.00027 21.2286 8.47526 18.6031 11.1008C15.9776 13.7263 14.5026 17.2872 14.5026 21.0003C14.5026 24.7133 15.9776 28.2743 18.6031 30.8998C21.2286 33.5253 24.7896 35.0003 28.5026 35.0003Z" fill="#F9674A"/>
</svg>
