<svg width="49" height="48" viewBox="0 0 49 48" fill="none" xmlns="http://www.w3.org/2000/svg">
<path d="M9.26537 41.5998C7.98704 41.5998 6.91237 41.1641 6.04138 40.2928C5.17004 39.4218 4.73438 38.3471 4.73438 37.0688V17.6308C4.73438 16.3525 5.17004 15.2778 6.04138 14.4068C6.91237 13.5355 7.98704 13.0998 9.26537 13.0998H16.9344V10.3303C16.9344 9.0523 17.37 7.97781 18.2414 7.10681C19.1124 6.23547 20.187 5.7998 21.4654 5.7998H27.2034C28.4817 5.7998 29.5564 6.23547 30.4274 7.10681C31.2987 7.97781 31.7344 9.0523 31.7344 10.3303V13.0998H39.4034C40.6817 13.0998 41.7564 13.5355 42.6274 14.4068C43.4987 15.2778 43.9344 16.3525 43.9344 17.6308V37.0688C43.9344 38.3471 43.4987 39.4218 42.6274 40.2928C41.7564 41.1641 40.6817 41.5998 39.4034 41.5998H9.26537ZM9.26537 38.2998H39.4034C39.7114 38.2998 39.9935 38.1716 40.2499 37.9153C40.5062 37.659 40.6344 37.3768 40.6344 37.0688V17.6308C40.6344 17.3228 40.5062 17.0406 40.2499 16.7843C39.9935 16.528 39.7114 16.3998 39.4034 16.3998H9.26537C8.95738 16.3998 8.67521 16.528 8.41888 16.7843C8.16254 17.0406 8.03437 17.3228 8.03437 17.6308V37.0688C8.03437 37.3768 8.16254 37.659 8.41888 37.9153C8.67521 38.1716 8.95738 38.2998 9.26537 38.2998ZM20.2344 13.0998H28.4344V10.3303C28.4344 10.0226 28.3062 9.74064 28.0499 9.4843C27.7935 9.22797 27.5114 9.0998 27.2034 9.0998H21.4654C21.1574 9.0998 20.8752 9.22797 20.6189 9.4843C20.3625 9.74064 20.2344 10.0226 20.2344 10.3303V13.0998Z" fill="#F9674A"/>
</svg>
