<svg width="57" height="56" viewBox="0 0 57 56" fill="none" xmlns="http://www.w3.org/2000/svg">
<path d="M9.83073 48.9974C8.5474 48.9974 7.44917 48.5408 6.53606 47.6277C5.62295 46.7146 5.16562 45.6156 5.16406 44.3307V18.6641C5.16406 17.3807 5.6214 16.2825 6.53606 15.3694C7.45073 14.4563 8.54895 13.999 9.83073 13.9974H19.1641V9.33073C19.1641 8.0474 19.6214 6.94917 20.5361 6.03606C21.4507 5.12295 22.549 4.66562 23.8307 4.66406H33.1641C34.4474 4.66406 35.5464 5.1214 36.4611 6.03606C37.3757 6.95073 37.8323 8.04895 37.8307 9.33073V13.9974H47.1641C48.4474 13.9974 49.5464 14.4547 50.4611 15.3694C51.3757 16.2841 51.8323 17.3823 51.8307 18.6641V44.3307C51.8307 45.6141 51.3742 46.7131 50.4611 47.6277C49.548 48.5424 48.449 48.999 47.1641 48.9974H9.83073ZM9.83073 44.3307H47.1641V18.6641H9.83073V44.3307ZM23.8307 13.9974H33.1641V9.33073H23.8307V13.9974Z" fill="#F9674A"/>
</svg>
