<svg width="41" height="43" viewBox="0 0 41 43" fill="none" xmlns="http://www.w3.org/2000/svg">
<path d="M8.58398 23.3004H16.8265C17.1695 22.7114 17.5603 22.1667 17.999 21.6664C18.4377 21.1661 18.9032 20.7107 19.3955 20.3004H8.58398V23.3004ZM8.58398 31.8004H15.257C15.193 31.3004 15.1488 30.8004 15.1245 30.3004C15.1002 29.8004 15.129 29.3004 15.211 28.8004H8.58398V31.8004ZM5.36498 39.6004C4.08665 39.6004 3.01198 39.1647 2.14098 38.2934C1.26965 37.4224 0.833984 36.3477 0.833984 35.0694V4.93139C0.833984 3.65306 1.26965 2.57839 2.14098 1.70739C3.01198 0.836058 4.08665 0.400391 5.36498 0.400391H20.734L31.834 11.4504V17.4389C31.3417 17.2259 30.8205 17.0624 30.2705 16.9484C29.7205 16.8344 29.1417 16.7731 28.534 16.7644V13.1004H19.134V3.70039H5.36498C5.05698 3.70039 4.77482 3.82856 4.51848 4.08489C4.26215 4.34122 4.13398 4.62339 4.13398 4.93139V35.0694C4.13398 35.3774 4.26215 35.6596 4.51848 35.9159C4.77482 36.1722 5.05698 36.3004 5.36498 36.3004H16.865C17.1827 36.9901 17.6037 37.6054 18.128 38.1464C18.6527 38.6874 19.2175 39.1721 19.8225 39.6004H5.36498ZM28.134 34.7659C29.5313 34.7659 30.7083 34.2877 31.665 33.3314C32.6213 32.3747 33.0995 31.1977 33.0995 29.8004C33.0995 28.4031 32.6213 27.2261 31.665 26.2694C30.7083 25.3131 29.5313 24.8349 28.134 24.8349C26.7367 24.8349 25.5597 25.3131 24.603 26.2694C23.6467 27.2261 23.1685 28.4031 23.1685 29.8004C23.1685 31.1977 23.6467 32.3747 24.603 33.3314C25.5597 34.2877 26.7367 34.7659 28.134 34.7659ZM38.334 42.2774L32.68 36.6734C32.0313 37.1247 31.3281 37.4696 30.5705 37.7079C29.8128 37.9466 29.0007 38.0659 28.134 38.0659C25.8187 38.0659 23.8623 37.2671 22.265 35.6694C20.6673 34.0721 19.8685 32.1157 19.8685 29.8004C19.8685 27.4851 20.6673 25.5287 22.265 23.9314C23.8623 22.3337 25.8187 21.5349 28.134 21.5349C30.4493 21.5349 32.4057 22.3337 34.003 23.9314C35.6007 25.5287 36.3995 27.4851 36.3995 29.8004C36.3995 30.6671 36.2802 31.4792 36.0415 32.2369C35.8032 32.9946 35.4583 33.6977 35.007 34.3464L40.611 40.0004L38.334 42.2774Z" fill="#F9674A"/>
</svg>
