<svg width="44" height="34" viewBox="0 0 44 34" fill="none" xmlns="http://www.w3.org/2000/svg">
<path d="M0 33.3309V28.4884C0 27.3268 0.276833 26.3394 0.8305 25.5264C1.38417 24.7134 2.127 24.0689 3.059 23.5929C4.92733 22.6669 6.821 21.9334 8.74 21.3924C10.6593 20.8514 12.9293 20.5809 15.55 20.5809C18.159 20.5809 20.4177 20.8514 22.326 21.3924C24.2343 21.9334 26.1225 22.6669 27.9905 23.5929C28.9228 24.0689 29.6658 24.7134 30.2195 25.5264C30.7732 26.3394 31.05 27.3268 31.05 28.4884V33.3309H0ZM35.3 33.3309V28.1959C35.3 27.1036 35.0903 25.8846 34.671 24.5389C34.252 23.1933 33.545 22.0521 32.55 21.1154C33.932 21.3154 35.2532 21.6263 36.5135 22.0479C37.7735 22.4699 38.9818 22.9859 40.1385 23.5959C41.1995 24.1576 42.0275 24.8553 42.6225 25.6889C43.2175 26.5226 43.515 27.3583 43.515 28.1959V33.3309H35.3ZM15.5 15.4689C13.465 15.4689 11.7228 14.7444 10.2735 13.2954C8.8245 11.8461 8.1 10.1039 8.1 8.06894C8.1 6.03395 8.8245 4.29194 10.2735 2.84294C11.7228 1.39361 13.465 0.668945 15.5 0.668945C17.535 0.668945 19.277 1.39361 20.726 2.84294C22.1753 4.29194 22.9 6.03395 22.9 8.06894C22.9 10.1039 22.1753 11.8461 20.726 13.2954C19.277 14.7444 17.535 15.4689 15.5 15.4689ZM34.2885 8.06894C34.2885 10.1039 33.5638 11.8461 32.1145 13.2954C30.6655 14.7444 28.9235 15.4689 26.8885 15.4689C26.6705 15.4689 26.346 15.4428 25.915 15.3904C25.4843 15.3378 25.16 15.2666 24.942 15.1769C25.6863 14.1469 26.2403 13.0288 26.604 11.8224C26.968 10.6161 27.15 9.36344 27.15 8.06444C27.15 6.76544 26.9595 5.52228 26.5785 4.33495C26.1978 3.14761 25.6523 2.02311 24.942 0.961444C25.2497 0.856444 25.574 0.781444 25.915 0.736444C26.256 0.691444 26.5805 0.668945 26.8885 0.668945C28.9235 0.668945 30.6655 1.39361 32.1145 2.84294C33.5638 4.29194 34.2885 6.03395 34.2885 8.06894ZM3.3 30.0309H27.75V28.4884C27.75 28.0191 27.666 27.6421 27.498 27.3574C27.33 27.0731 26.9922 26.8039 26.4845 26.5499C24.9588 25.7526 23.2857 25.1084 21.465 24.6174C19.6447 24.1264 17.6647 23.8809 15.525 23.8809C13.385 23.8809 11.4048 24.1264 9.5845 24.6174C7.76383 25.1084 6.09067 25.7526 4.565 26.5499C4.05733 26.8039 3.7195 27.0731 3.5515 27.3574C3.38383 27.6421 3.3 28.0191 3.3 28.4884V30.0309ZM15.506 12.1689C16.6353 12.1689 17.6 11.7669 18.4 10.9629C19.2 10.1589 19.6 9.19228 19.6 8.06294C19.6 6.93361 19.1978 5.96895 18.3935 5.16894C17.5895 4.36895 16.6228 3.96895 15.4935 3.96895C14.3645 3.96895 13.4 4.37111 12.6 5.17545C11.8 5.97945 11.4 6.94611 11.4 8.07545C11.4 9.20444 11.802 10.1689 12.606 10.9689C13.41 11.7689 14.3767 12.1689 15.506 12.1689Z" fill="#F9674A"/>
</svg>
