<svg width="48" height="48" viewBox="0 0 48 48" fill="none" xmlns="http://www.w3.org/2000/svg">
<path d="M9.4567 21.777L14.7417 23.9845C15.3467 22.8078 16.0062 21.6342 16.7202 20.4635C17.4345 19.2932 18.2095 18.1592 19.0452 17.0615L15.3187 16.3195C15.216 16.2938 15.1165 16.297 15.0202 16.329C14.9242 16.361 14.8377 16.4155 14.7607 16.4925L9.4567 21.777ZM17.1952 25.5115L23.2762 31.6425C25.2915 30.6092 27.1062 29.5508 28.7202 28.4675C30.3342 27.3842 31.6952 26.2887 32.8032 25.181C35.1775 22.8067 36.9377 20.3605 38.0837 17.8425C39.23 15.3245 39.9082 12.277 40.1182 8.70001C36.5285 8.91034 33.4895 9.57701 31.0012 10.7C28.5125 11.823 26.0644 13.5883 23.6567 15.996C22.549 17.104 21.4535 18.4598 20.3702 20.0635C19.2869 21.6675 18.2285 23.4835 17.1952 25.5115ZM29.0337 19.7655C28.4644 19.2092 28.1797 18.5355 28.1797 17.7445C28.1797 16.9535 28.4644 16.2733 29.0337 15.704C29.603 15.1347 30.2864 14.85 31.0837 14.85C31.881 14.85 32.5644 15.1347 33.1337 15.704C33.6697 16.2733 33.9377 16.9535 33.9377 17.7445C33.9377 18.5355 33.6697 19.2092 33.1337 19.7655C32.5644 20.3348 31.881 20.6195 31.0837 20.6195C30.2864 20.6195 29.603 20.3348 29.0337 19.7655ZM27.0222 39.3615L32.3262 34.077C32.4029 34 32.454 33.9102 32.4797 33.8075C32.5054 33.7052 32.5119 33.609 32.4992 33.519L31.7377 29.7925C30.64 30.6155 29.5092 31.384 28.3452 32.098C27.1812 32.812 25.9877 33.4947 24.7647 34.146L27.0222 39.3615ZM43.2262 5.61151C43.5439 9.62451 42.9944 13.4693 41.5777 17.146C40.161 20.823 37.9925 24.1153 35.0722 27.023C34.9542 27.141 34.8229 27.2757 34.6782 27.427C34.5332 27.5783 34.4017 27.6898 34.2837 27.7615L35.3182 32.954C35.4389 33.541 35.4024 34.1165 35.2087 34.6805C35.015 35.2448 34.731 35.7142 34.3567 36.0885L26.0532 44.423L21.6147 34.0925L14.6567 27.154L4.3457 22.727L12.7107 14.4425C13.098 14.0682 13.5737 13.781 14.1377 13.581C14.7017 13.381 15.2774 13.3477 15.8647 13.481L21.0262 14.4655C21.1442 14.3605 21.264 14.2457 21.3857 14.121C21.5077 13.9967 21.6275 13.882 21.7452 13.777C24.6659 10.8567 27.9697 8.68617 31.6567 7.26551C35.344 5.84517 39.2005 5.29384 43.2262 5.61151ZM8.1072 32.8C9.1482 31.7463 10.4077 31.2207 11.8857 31.223C13.364 31.2257 14.63 31.7475 15.6837 32.7885C16.6914 33.8295 17.1984 35.0892 17.2047 36.5675C17.2114 38.0455 16.6942 39.3115 15.6532 40.3655C14.7965 41.2088 13.5394 41.9082 11.8817 42.4635C10.224 43.0185 7.83637 43.4525 4.7187 43.7655C5.03137 40.6142 5.4602 38.2097 6.0052 36.552C6.54987 34.8943 7.25054 33.6437 8.1072 32.8ZM10.1877 34.85C9.73404 35.337 9.35204 36.0267 9.0417 36.919C8.73137 37.8113 8.46854 38.9113 8.2532 40.219C9.56087 40.0243 10.6609 39.7635 11.5532 39.4365C12.4455 39.1095 13.1352 38.7127 13.6222 38.246C14.0915 37.8307 14.3314 37.2813 14.3417 36.598C14.3517 35.9147 14.1157 35.3217 13.6337 34.819C13.1314 34.337 12.5385 34.1043 11.8552 34.121C11.1719 34.1377 10.616 34.3807 10.1877 34.85Z" fill="#F9674A"/>
</svg>
