<svg width="49" height="48" viewBox="0 0 49 48" fill="none" xmlns="http://www.w3.org/2000/svg">
<path d="M9.28424 38.75C8.35823 38.75 7.5569 38.4117 6.88023 37.735C6.20357 37.0583 5.86523 36.257 5.86523 35.331V12.669C5.86523 11.743 6.20357 10.9417 6.88023 10.265C7.5569 9.58833 8.35823 9.25 9.28424 9.25H40.0462C40.9722 9.25 41.7736 9.58833 42.4502 10.265C43.1269 10.9417 43.4652 11.743 43.4652 12.669V35.331C43.4652 36.257 43.1269 37.0583 42.4502 37.735C41.7736 38.4117 40.9722 38.75 40.0462 38.75H9.28424ZM9.28424 36.5615H30.8882V28.4575H8.05373V35.331C8.05373 35.6387 8.1819 35.9207 8.43824 36.177C8.69457 36.4333 8.97657 36.5615 9.28424 36.5615ZM33.0767 36.5615H40.0462C40.3539 36.5615 40.6359 36.4333 40.8922 36.177C41.1486 35.9207 41.2767 35.6387 41.2767 35.331V18.1155H33.0767V36.5615ZM8.05373 26.269H30.8882V18.1155H8.05373V26.269Z" fill="#F9674A"/>
</svg>
