<svg width="223" height="336" viewBox="0 0 223 336" fill="none" xmlns="http://www.w3.org/2000/svg">
<g clip-path="url(#clip0_3075_33363)">
<circle cx="220.636" cy="2.36394" r="2.36394" transform="rotate(90 220.636 2.36394)" fill="#F9674A"/>
<circle cx="163.902" cy="2.36394" r="2.36394" transform="rotate(90 163.902 2.36394)" fill="#F9674A"/>
<circle cx="192.269" cy="2.36394" r="2.36394" transform="rotate(90 192.269 2.36394)" fill="#F9674A"/>
<circle cx="135.535" cy="2.36394" r="2.36394" transform="rotate(90 135.535 2.36394)" fill="#F9674A"/>
<circle cx="206.456" cy="2.36394" r="2.36394" transform="rotate(90 206.456 2.36394)" fill="#F9674A"/>
<circle cx="149.722" cy="2.36394" r="2.36394" transform="rotate(90 149.722 2.36394)" fill="#F9674A"/>
<circle cx="178.089" cy="2.36394" r="2.36394" transform="rotate(90 178.089 2.36394)" fill="#F9674A"/>
<circle cx="121.355" cy="2.36394" r="2.36394" transform="rotate(90 121.355 2.36394)" fill="#F9674A"/>
<circle cx="220.636" cy="59.0983" r="2.36394" transform="rotate(90 220.636 59.0983)" fill="#F9674A"/>
<circle cx="163.902" cy="59.0983" r="2.36394" transform="rotate(90 163.902 59.0983)" fill="#F9674A"/>
<circle cx="192.269" cy="59.0983" r="2.36394" transform="rotate(90 192.269 59.0983)" fill="#F9674A"/>
<circle cx="135.535" cy="59.0983" r="2.36394" transform="rotate(90 135.535 59.0983)" fill="#F9674A"/>
<circle cx="206.456" cy="59.0983" r="2.36394" transform="rotate(90 206.456 59.0983)" fill="#F9674A"/>
<circle cx="149.714" cy="59.0983" r="2.36394" transform="rotate(90 149.714 59.0983)" fill="#F9674A"/>
<circle cx="178.089" cy="59.0983" r="2.36394" transform="rotate(90 178.089 59.0983)" fill="#F9674A"/>
<circle cx="121.347" cy="59.0983" r="2.36394" transform="rotate(90 121.347 59.0983)" fill="#F9674A"/>
<circle cx="220.636" cy="16.5514" r="2.36394" transform="rotate(90 220.636 16.5514)" fill="#F9674A"/>
<circle cx="163.902" cy="16.5514" r="2.36394" transform="rotate(90 163.902 16.5514)" fill="#F9674A"/>
<circle cx="192.269" cy="16.5436" r="2.36394" transform="rotate(90 192.269 16.5436)" fill="#F9674A"/>
<circle cx="135.535" cy="16.5514" r="2.36394" transform="rotate(90 135.535 16.5514)" fill="#F9674A"/>
<circle cx="206.456" cy="16.5514" r="2.36394" transform="rotate(90 206.456 16.5514)" fill="#F9674A"/>
<circle cx="149.714" cy="16.5436" r="2.36394" transform="rotate(90 149.714 16.5436)" fill="#F9674A"/>
<circle cx="178.081" cy="16.5436" r="2.36394" transform="rotate(90 178.081 16.5436)" fill="#F9674A"/>
<circle cx="121.347" cy="16.5436" r="2.36394" transform="rotate(90 121.347 16.5436)" fill="#F9674A"/>
<circle cx="220.636" cy="73.2858" r="2.36394" transform="rotate(90 220.636 73.2858)" fill="#F9674A"/>
<circle cx="163.902" cy="73.278" r="2.36394" transform="rotate(90 163.902 73.278)" fill="#F9674A"/>
<circle cx="192.269" cy="73.278" r="2.36394" transform="rotate(90 192.269 73.278)" fill="#F9674A"/>
<circle cx="135.535" cy="73.278" r="2.36394" transform="rotate(90 135.535 73.278)" fill="#F9674A"/>
<circle cx="206.449" cy="73.278" r="2.36394" transform="rotate(90 206.449 73.278)" fill="#F9674A"/>
<circle cx="149.714" cy="73.278" r="2.36394" transform="rotate(90 149.714 73.278)" fill="#F9674A"/>
<circle cx="178.089" cy="73.278" r="2.36394" transform="rotate(90 178.089 73.278)" fill="#F9674A"/>
<circle cx="121.347" cy="73.278" r="2.36394" transform="rotate(90 121.347 73.278)" fill="#F9674A"/>
<circle cx="220.636" cy="30.7311" r="2.36394" transform="rotate(90 220.636 30.7311)" fill="#F9674A"/>
<circle cx="163.902" cy="30.7311" r="2.36394" transform="rotate(90 163.902 30.7311)" fill="#F9674A"/>
<circle cx="192.269" cy="30.7311" r="2.36394" transform="rotate(90 192.269 30.7311)" fill="#F9674A"/>
<circle cx="135.535" cy="30.7311" r="2.36394" transform="rotate(90 135.535 30.7311)" fill="#F9674A"/>
<circle cx="206.449" cy="30.7311" r="2.36394" transform="rotate(90 206.449 30.7311)" fill="#F9674A"/>
<circle cx="149.714" cy="30.7311" r="2.36394" transform="rotate(90 149.714 30.7311)" fill="#F9674A"/>
<circle cx="178.081" cy="30.7311" r="2.36394" transform="rotate(90 178.081 30.7311)" fill="#F9674A"/>
<circle cx="121.347" cy="30.7311" r="2.36394" transform="rotate(90 121.347 30.7311)" fill="#F9674A"/>
<circle cx="220.636" cy="87.4655" r="2.36394" transform="rotate(90 220.636 87.4655)" fill="#F9674A"/>
<circle cx="163.902" cy="87.4655" r="2.36394" transform="rotate(90 163.902 87.4655)" fill="#F9674A"/>
<circle cx="192.269" cy="87.4655" r="2.36394" transform="rotate(90 192.269 87.4655)" fill="#F9674A"/>
<circle cx="135.535" cy="87.4655" r="2.36394" transform="rotate(90 135.535 87.4655)" fill="#F9674A"/>
<circle cx="206.456" cy="87.4655" r="2.36394" transform="rotate(90 206.456 87.4655)" fill="#F9674A"/>
<circle cx="149.714" cy="87.4655" r="2.36394" transform="rotate(90 149.714 87.4655)" fill="#F9674A"/>
<circle cx="178.089" cy="87.4655" r="2.36394" transform="rotate(90 178.089 87.4655)" fill="#F9674A"/>
<circle cx="121.347" cy="87.4655" r="2.36394" transform="rotate(90 121.347 87.4655)" fill="#F9674A"/>
<circle cx="220.636" cy="44.9108" r="2.36394" transform="rotate(90 220.636 44.9108)" fill="#F9674A"/>
<circle cx="163.902" cy="44.9186" r="2.36394" transform="rotate(90 163.902 44.9186)" fill="#F9674A"/>
<circle cx="192.269" cy="44.9108" r="2.36394" transform="rotate(90 192.269 44.9108)" fill="#F9674A"/>
<circle cx="135.535" cy="44.9186" r="2.36394" transform="rotate(90 135.535 44.9186)" fill="#F9674A"/>
<circle cx="206.456" cy="44.9108" r="2.36394" transform="rotate(90 206.456 44.9108)" fill="#F9674A"/>
<circle cx="149.714" cy="44.9186" r="2.36394" transform="rotate(90 149.714 44.9186)" fill="#F9674A"/>
<circle cx="178.081" cy="44.9108" r="2.36394" transform="rotate(90 178.081 44.9108)" fill="#F9674A"/>
<circle cx="121.347" cy="44.9108" r="2.36394" transform="rotate(90 121.347 44.9108)" fill="#F9674A"/>
<circle cx="220.636" cy="101.653" r="2.36394" transform="rotate(90 220.636 101.653)" fill="#F9674A"/>
<circle cx="163.902" cy="101.645" r="2.36394" transform="rotate(90 163.902 101.645)" fill="#F9674A"/>
<circle cx="192.269" cy="101.645" r="2.36394" transform="rotate(90 192.269 101.645)" fill="#F9674A"/>
<circle cx="135.542" cy="101.645" r="2.36394" transform="rotate(90 135.542 101.645)" fill="#F9674A"/>
<circle cx="206.456" cy="101.645" r="2.36394" transform="rotate(90 206.456 101.645)" fill="#F9674A"/>
<circle cx="149.722" cy="101.645" r="2.36394" transform="rotate(90 149.722 101.645)" fill="#F9674A"/>
<circle cx="178.081" cy="101.645" r="2.36394" transform="rotate(90 178.081 101.645)" fill="#F9674A"/>
<circle cx="121.355" cy="101.653" r="2.36394" transform="rotate(90 121.355 101.653)" fill="#F9674A"/>
</g>
<g clip-path="url(#clip1_3075_33363)">
<circle cx="107.167" cy="2.36394" r="2.36394" transform="rotate(90 107.167 2.36394)" fill="#F9674A"/>
<circle cx="50.4329" cy="2.36394" r="2.36394" transform="rotate(90 50.4329 2.36394)" fill="#F9674A"/>
<circle cx="78.8001" cy="2.36394" r="2.36394" transform="rotate(90 78.8001 2.36394)" fill="#F9674A"/>
<circle cx="22.0658" cy="2.36394" r="2.36394" transform="rotate(90 22.0658 2.36394)" fill="#F9674A"/>
<circle cx="92.9798" cy="2.36394" r="2.36394" transform="rotate(90 92.9798 2.36394)" fill="#F9674A"/>
<circle cx="36.2454" cy="2.36394" r="2.36394" transform="rotate(90 36.2454 2.36394)" fill="#F9674A"/>
<circle cx="64.6204" cy="2.36394" r="2.36394" transform="rotate(90 64.6204 2.36394)" fill="#F9674A"/>
<circle cx="7.88606" cy="2.36394" r="2.36394" transform="rotate(90 7.88606 2.36394)" fill="#F9674A"/>
<circle cx="107.167" cy="59.0983" r="2.36394" transform="rotate(90 107.167 59.0983)" fill="#F9674A"/>
<circle cx="50.4329" cy="59.0983" r="2.36394" transform="rotate(90 50.4329 59.0983)" fill="#F9674A"/>
<circle cx="78.8001" cy="59.0983" r="2.36394" transform="rotate(90 78.8001 59.0983)" fill="#F9674A"/>
<circle cx="22.0658" cy="59.0983" r="2.36394" transform="rotate(90 22.0658 59.0983)" fill="#F9674A"/>
<circle cx="92.9876" cy="59.0983" r="2.36394" transform="rotate(90 92.9876 59.0983)" fill="#F9674A"/>
<circle cx="36.2533" cy="59.0983" r="2.36394" transform="rotate(90 36.2533 59.0983)" fill="#F9674A"/>
<circle cx="64.6126" cy="59.0983" r="2.36394" transform="rotate(90 64.6126 59.0983)" fill="#F9674A"/>
<circle cx="7.87825" cy="59.0983" r="2.36394" transform="rotate(90 7.87825 59.0983)" fill="#F9674A"/>
<circle cx="107.167" cy="16.5514" r="2.36394" transform="rotate(90 107.167 16.5514)" fill="#F9674A"/>
<circle cx="50.4251" cy="16.5514" r="2.36394" transform="rotate(90 50.4251 16.5514)" fill="#F9674A"/>
<circle cx="78.8001" cy="16.5436" r="2.36394" transform="rotate(90 78.8001 16.5436)" fill="#F9674A"/>
<circle cx="22.0658" cy="16.5436" r="2.36394" transform="rotate(90 22.0658 16.5436)" fill="#F9674A"/>
<circle cx="92.9798" cy="16.5436" r="2.36394" transform="rotate(90 92.9798 16.5436)" fill="#F9674A"/>
<circle cx="36.2454" cy="16.5436" r="2.36394" transform="rotate(90 36.2454 16.5436)" fill="#F9674A"/>
<circle cx="64.6126" cy="16.5436" r="2.36394" transform="rotate(90 64.6126 16.5436)" fill="#F9674A"/>
<circle cx="7.87825" cy="16.5436" r="2.36394" transform="rotate(90 7.87825 16.5436)" fill="#F9674A"/>
<circle cx="107.167" cy="73.2858" r="2.36394" transform="rotate(90 107.167 73.2858)" fill="#F9674A"/>
<circle cx="50.4329" cy="73.278" r="2.36394" transform="rotate(90 50.4329 73.278)" fill="#F9674A"/>
<circle cx="78.8001" cy="73.278" r="2.36394" transform="rotate(90 78.8001 73.278)" fill="#F9674A"/>
<circle cx="22.0658" cy="73.278" r="2.36394" transform="rotate(90 22.0658 73.278)" fill="#F9674A"/>
<circle cx="92.9798" cy="73.278" r="2.36394" transform="rotate(90 92.9798 73.278)" fill="#F9674A"/>
<circle cx="36.2454" cy="73.278" r="2.36394" transform="rotate(90 36.2454 73.278)" fill="#F9674A"/>
<circle cx="64.6126" cy="73.278" r="2.36394" transform="rotate(90 64.6126 73.278)" fill="#F9674A"/>
<circle cx="7.87825" cy="73.278" r="2.36394" transform="rotate(90 7.87825 73.278)" fill="#F9674A"/>
<circle cx="107.167" cy="30.7311" r="2.36394" transform="rotate(90 107.167 30.7311)" fill="#F9674A"/>
<circle cx="50.4251" cy="30.7311" r="2.36394" transform="rotate(90 50.4251 30.7311)" fill="#F9674A"/>
<circle cx="78.8001" cy="30.7311" r="2.36394" transform="rotate(90 78.8001 30.7311)" fill="#F9674A"/>
<circle cx="22.0658" cy="30.7311" r="2.36394" transform="rotate(90 22.0658 30.7311)" fill="#F9674A"/>
<circle cx="92.9798" cy="30.7311" r="2.36394" transform="rotate(90 92.9798 30.7311)" fill="#F9674A"/>
<circle cx="36.2454" cy="30.7311" r="2.36394" transform="rotate(90 36.2454 30.7311)" fill="#F9674A"/>
<circle cx="64.6126" cy="30.7311" r="2.36394" transform="rotate(90 64.6126 30.7311)" fill="#F9674A"/>
<circle cx="7.87825" cy="30.7311" r="2.36394" transform="rotate(90 7.87825 30.7311)" fill="#F9674A"/>
<circle cx="107.167" cy="87.4655" r="2.36394" transform="rotate(90 107.167 87.4655)" fill="#F9674A"/>
<circle cx="50.4329" cy="87.4655" r="2.36394" transform="rotate(90 50.4329 87.4655)" fill="#F9674A"/>
<circle cx="78.8001" cy="87.4655" r="2.36394" transform="rotate(90 78.8001 87.4655)" fill="#F9674A"/>
<circle cx="22.0658" cy="87.4655" r="2.36394" transform="rotate(90 22.0658 87.4655)" fill="#F9674A"/>
<circle cx="92.9798" cy="87.4655" r="2.36394" transform="rotate(90 92.9798 87.4655)" fill="#F9674A"/>
<circle cx="36.2454" cy="87.4655" r="2.36394" transform="rotate(90 36.2454 87.4655)" fill="#F9674A"/>
<circle cx="64.6126" cy="87.4655" r="2.36394" transform="rotate(90 64.6126 87.4655)" fill="#F9674A"/>
<circle cx="7.87825" cy="87.4655" r="2.36394" transform="rotate(90 7.87825 87.4655)" fill="#F9674A"/>
<circle cx="107.167" cy="44.9108" r="2.36394" transform="rotate(90 107.167 44.9108)" fill="#F9674A"/>
<circle cx="50.4251" cy="44.9186" r="2.36394" transform="rotate(90 50.4251 44.9186)" fill="#F9674A"/>
<circle cx="78.8001" cy="44.9108" r="2.36394" transform="rotate(90 78.8001 44.9108)" fill="#F9674A"/>
<circle cx="22.0658" cy="44.9108" r="2.36394" transform="rotate(90 22.0658 44.9108)" fill="#F9674A"/>
<circle cx="92.9876" cy="44.9108" r="2.36394" transform="rotate(90 92.9876 44.9108)" fill="#F9674A"/>
<circle cx="36.2533" cy="44.9108" r="2.36394" transform="rotate(90 36.2533 44.9108)" fill="#F9674A"/>
<circle cx="64.6126" cy="44.9108" r="2.36394" transform="rotate(90 64.6126 44.9108)" fill="#F9674A"/>
<circle cx="7.87825" cy="44.9108" r="2.36394" transform="rotate(90 7.87825 44.9108)" fill="#F9674A"/>
<circle cx="107.167" cy="101.653" r="2.36394" transform="rotate(90 107.167 101.653)" fill="#F9674A"/>
<circle cx="50.4251" cy="101.645" r="2.36394" transform="rotate(90 50.4251 101.645)" fill="#F9674A"/>
<circle cx="78.8001" cy="101.645" r="2.36394" transform="rotate(90 78.8001 101.645)" fill="#F9674A"/>
<circle cx="22.0658" cy="101.645" r="2.36394" transform="rotate(90 22.0658 101.645)" fill="#F9674A"/>
<circle cx="92.9876" cy="101.645" r="2.36394" transform="rotate(90 92.9876 101.645)" fill="#F9674A"/>
<circle cx="36.2533" cy="101.645" r="2.36394" transform="rotate(90 36.2533 101.645)" fill="#F9674A"/>
<circle cx="64.6126" cy="101.645" r="2.36394" transform="rotate(90 64.6126 101.645)" fill="#F9674A"/>
<circle cx="7.88606" cy="101.653" r="2.36394" transform="rotate(90 7.88606 101.653)" fill="#F9674A"/>
</g>
<g clip-path="url(#clip2_3075_33363)">
<circle cx="220.636" cy="115.833" r="2.36394" transform="rotate(90 220.636 115.833)" fill="#F9674A"/>
<circle cx="163.902" cy="115.833" r="2.36394" transform="rotate(90 163.902 115.833)" fill="#F9674A"/>
<circle cx="192.269" cy="115.833" r="2.36394" transform="rotate(90 192.269 115.833)" fill="#F9674A"/>
<circle cx="135.542" cy="115.833" r="2.36394" transform="rotate(90 135.542 115.833)" fill="#F9674A"/>
<circle cx="206.449" cy="115.833" r="2.36394" transform="rotate(90 206.449 115.833)" fill="#F9674A"/>
<circle cx="149.714" cy="115.833" r="2.36394" transform="rotate(90 149.714 115.833)" fill="#F9674A"/>
<circle cx="178.089" cy="115.833" r="2.36394" transform="rotate(90 178.089 115.833)" fill="#F9674A"/>
<circle cx="121.355" cy="115.833" r="2.36394" transform="rotate(90 121.355 115.833)" fill="#F9674A"/>
<circle cx="220.636" cy="172.567" r="2.36394" transform="rotate(90 220.636 172.567)" fill="#F9674A"/>
<circle cx="163.91" cy="172.567" r="2.36394" transform="rotate(90 163.91 172.567)" fill="#F9674A"/>
<circle cx="192.269" cy="172.567" r="2.36394" transform="rotate(90 192.269 172.567)" fill="#F9674A"/>
<circle cx="135.535" cy="172.567" r="2.36394" transform="rotate(90 135.535 172.567)" fill="#F9674A"/>
<circle cx="206.456" cy="172.559" r="2.36394" transform="rotate(90 206.456 172.559)" fill="#F9674A"/>
<circle cx="149.714" cy="172.567" r="2.36394" transform="rotate(90 149.714 172.567)" fill="#F9674A"/>
<circle cx="178.089" cy="172.567" r="2.36394" transform="rotate(90 178.089 172.567)" fill="#F9674A"/>
<circle cx="121.347" cy="172.559" r="2.36394" transform="rotate(90 121.347 172.559)" fill="#F9674A"/>
<circle cx="220.636" cy="130.012" r="2.36394" transform="rotate(90 220.636 130.012)" fill="#F9674A"/>
<circle cx="163.902" cy="130.012" r="2.36394" transform="rotate(90 163.902 130.012)" fill="#F9674A"/>
<circle cx="192.269" cy="130.012" r="2.36394" transform="rotate(90 192.269 130.012)" fill="#F9674A"/>
<circle cx="135.535" cy="130.012" r="2.36394" transform="rotate(90 135.535 130.012)" fill="#F9674A"/>
<circle cx="206.456" cy="130.012" r="2.36394" transform="rotate(90 206.456 130.012)" fill="#F9674A"/>
<circle cx="149.714" cy="130.012" r="2.36394" transform="rotate(90 149.714 130.012)" fill="#F9674A"/>
<circle cx="178.081" cy="130.012" r="2.36394" transform="rotate(90 178.081 130.012)" fill="#F9674A"/>
<circle cx="121.347" cy="130.012" r="2.36394" transform="rotate(90 121.347 130.012)" fill="#F9674A"/>
<circle cx="220.636" cy="186.747" r="2.36394" transform="rotate(90 220.636 186.747)" fill="#F9674A"/>
<circle cx="163.91" cy="186.747" r="2.36394" transform="rotate(90 163.91 186.747)" fill="#F9674A"/>
<circle cx="192.269" cy="186.747" r="2.36394" transform="rotate(90 192.269 186.747)" fill="#F9674A"/>
<circle cx="135.535" cy="186.747" r="2.36394" transform="rotate(90 135.535 186.747)" fill="#F9674A"/>
<circle cx="206.449" cy="186.747" r="2.36394" transform="rotate(90 206.449 186.747)" fill="#F9674A"/>
<circle cx="149.714" cy="186.747" r="2.36394" transform="rotate(90 149.714 186.747)" fill="#F9674A"/>
<circle cx="178.089" cy="186.747" r="2.36394" transform="rotate(90 178.089 186.747)" fill="#F9674A"/>
<circle cx="121.347" cy="186.747" r="2.36394" transform="rotate(90 121.347 186.747)" fill="#F9674A"/>
<circle cx="220.636" cy="144.2" r="2.36394" transform="rotate(90 220.636 144.2)" fill="#F9674A"/>
<circle cx="163.902" cy="144.2" r="2.36394" transform="rotate(90 163.902 144.2)" fill="#F9674A"/>
<circle cx="192.269" cy="144.2" r="2.36394" transform="rotate(90 192.269 144.2)" fill="#F9674A"/>
<circle cx="135.535" cy="144.2" r="2.36394" transform="rotate(90 135.535 144.2)" fill="#F9674A"/>
<circle cx="206.449" cy="144.2" r="2.36394" transform="rotate(90 206.449 144.2)" fill="#F9674A"/>
<circle cx="149.714" cy="144.2" r="2.36394" transform="rotate(90 149.714 144.2)" fill="#F9674A"/>
<circle cx="178.081" cy="144.2" r="2.36394" transform="rotate(90 178.081 144.2)" fill="#F9674A"/>
<circle cx="121.347" cy="144.192" r="2.36394" transform="rotate(90 121.347 144.192)" fill="#F9674A"/>
<circle cx="220.636" cy="200.934" r="2.36394" transform="rotate(90 220.636 200.934)" fill="#F9674A"/>
<circle cx="163.91" cy="200.926" r="2.36394" transform="rotate(90 163.91 200.926)" fill="#F9674A"/>
<circle cx="192.269" cy="200.926" r="2.36394" transform="rotate(90 192.269 200.926)" fill="#F9674A"/>
<circle cx="135.535" cy="200.926" r="2.36394" transform="rotate(90 135.535 200.926)" fill="#F9674A"/>
<circle cx="206.456" cy="200.926" r="2.36394" transform="rotate(90 206.456 200.926)" fill="#F9674A"/>
<circle cx="149.714" cy="200.926" r="2.36394" transform="rotate(90 149.714 200.926)" fill="#F9674A"/>
<circle cx="178.089" cy="200.926" r="2.36394" transform="rotate(90 178.089 200.926)" fill="#F9674A"/>
<circle cx="121.347" cy="200.934" r="2.36394" transform="rotate(90 121.347 200.934)" fill="#F9674A"/>
<circle cx="220.636" cy="158.38" r="2.36394" transform="rotate(90 220.636 158.38)" fill="#F9674A"/>
<circle cx="163.902" cy="158.38" r="2.36394" transform="rotate(90 163.902 158.38)" fill="#F9674A"/>
<circle cx="192.269" cy="158.38" r="2.36394" transform="rotate(90 192.269 158.38)" fill="#F9674A"/>
<circle cx="135.535" cy="158.38" r="2.36394" transform="rotate(90 135.535 158.38)" fill="#F9674A"/>
<circle cx="206.456" cy="158.38" r="2.36394" transform="rotate(90 206.456 158.38)" fill="#F9674A"/>
<circle cx="149.714" cy="158.38" r="2.36394" transform="rotate(90 149.714 158.38)" fill="#F9674A"/>
<circle cx="178.081" cy="158.38" r="2.36394" transform="rotate(90 178.081 158.38)" fill="#F9674A"/>
<circle cx="121.347" cy="158.38" r="2.36394" transform="rotate(90 121.347 158.38)" fill="#F9674A"/>
<circle cx="220.636" cy="215.114" r="2.36394" transform="rotate(90 220.636 215.114)" fill="#F9674A"/>
<circle cx="163.902" cy="215.114" r="2.36394" transform="rotate(90 163.902 215.114)" fill="#F9674A"/>
<circle cx="192.269" cy="215.114" r="2.36394" transform="rotate(90 192.269 215.114)" fill="#F9674A"/>
<circle cx="135.535" cy="215.114" r="2.36394" transform="rotate(90 135.535 215.114)" fill="#F9674A"/>
<circle cx="206.456" cy="215.114" r="2.36394" transform="rotate(90 206.456 215.114)" fill="#F9674A"/>
<circle cx="149.722" cy="215.114" r="2.36394" transform="rotate(90 149.722 215.114)" fill="#F9674A"/>
<circle cx="178.081" cy="215.114" r="2.36394" transform="rotate(90 178.081 215.114)" fill="#F9674A"/>
<circle cx="121.347" cy="215.114" r="2.36394" transform="rotate(90 121.347 215.114)" fill="#F9674A"/>
</g>
<g clip-path="url(#clip3_3075_33363)">
<circle cx="220.644" cy="229.63" r="2.36394" transform="rotate(90 220.644 229.63)" fill="#F9674A"/>
<circle cx="163.917" cy="229.63" r="2.36394" transform="rotate(90 163.917 229.63)" fill="#F9674A"/>
<circle cx="192.277" cy="229.63" r="2.36394" transform="rotate(90 192.277 229.63)" fill="#F9674A"/>
<circle cx="135.542" cy="229.63" r="2.36394" transform="rotate(90 135.542 229.63)" fill="#F9674A"/>
<circle cx="206.464" cy="229.63" r="2.36394" transform="rotate(90 206.464 229.63)" fill="#F9674A"/>
<circle cx="149.73" cy="229.63" r="2.36394" transform="rotate(90 149.73 229.63)" fill="#F9674A"/>
<circle cx="178.089" cy="229.63" r="2.36394" transform="rotate(90 178.089 229.63)" fill="#F9674A"/>
<circle cx="121.355" cy="229.63" r="2.36394" transform="rotate(90 121.355 229.63)" fill="#F9674A"/>
<circle cx="220.644" cy="286.364" r="2.36394" transform="rotate(90 220.644 286.364)" fill="#F9674A"/>
<circle cx="163.917" cy="286.364" r="2.36394" transform="rotate(90 163.917 286.364)" fill="#F9674A"/>
<circle cx="192.277" cy="286.364" r="2.36394" transform="rotate(90 192.277 286.364)" fill="#F9674A"/>
<circle cx="135.542" cy="286.364" r="2.36394" transform="rotate(90 135.542 286.364)" fill="#F9674A"/>
<circle cx="206.464" cy="286.356" r="2.36394" transform="rotate(90 206.464 286.356)" fill="#F9674A"/>
<circle cx="149.722" cy="286.364" r="2.36394" transform="rotate(90 149.722 286.364)" fill="#F9674A"/>
<circle cx="178.097" cy="286.356" r="2.36394" transform="rotate(90 178.097 286.356)" fill="#F9674A"/>
<circle cx="121.355" cy="286.356" r="2.36394" transform="rotate(90 121.355 286.356)" fill="#F9674A"/>
<circle cx="220.644" cy="243.809" r="2.36394" transform="rotate(90 220.644 243.809)" fill="#F9674A"/>
<circle cx="163.91" cy="243.809" r="2.36394" transform="rotate(90 163.91 243.809)" fill="#F9674A"/>
<circle cx="192.277" cy="243.809" r="2.36394" transform="rotate(90 192.277 243.809)" fill="#F9674A"/>
<circle cx="135.542" cy="243.809" r="2.36394" transform="rotate(90 135.542 243.809)" fill="#F9674A"/>
<circle cx="206.464" cy="243.809" r="2.36394" transform="rotate(90 206.464 243.809)" fill="#F9674A"/>
<circle cx="149.722" cy="243.809" r="2.36394" transform="rotate(90 149.722 243.809)" fill="#F9674A"/>
<circle cx="178.089" cy="243.809" r="2.36394" transform="rotate(90 178.089 243.809)" fill="#F9674A"/>
<circle cx="121.355" cy="243.809" r="2.36394" transform="rotate(90 121.355 243.809)" fill="#F9674A"/>
<circle cx="220.644" cy="300.551" r="2.36394" transform="rotate(90 220.644 300.551)" fill="#F9674A"/>
<circle cx="163.917" cy="300.544" r="2.36394" transform="rotate(90 163.917 300.544)" fill="#F9674A"/>
<circle cx="192.277" cy="300.544" r="2.36394" transform="rotate(90 192.277 300.544)" fill="#F9674A"/>
<circle cx="135.542" cy="300.544" r="2.36394" transform="rotate(90 135.542 300.544)" fill="#F9674A"/>
<circle cx="206.456" cy="300.544" r="2.36394" transform="rotate(90 206.456 300.544)" fill="#F9674A"/>
<circle cx="149.722" cy="300.544" r="2.36394" transform="rotate(90 149.722 300.544)" fill="#F9674A"/>
<circle cx="178.097" cy="300.544" r="2.36394" transform="rotate(90 178.097 300.544)" fill="#F9674A"/>
<circle cx="121.355" cy="300.544" r="2.36394" transform="rotate(90 121.355 300.544)" fill="#F9674A"/>
<circle cx="220.644" cy="257.997" r="2.36394" transform="rotate(90 220.644 257.997)" fill="#F9674A"/>
<circle cx="163.91" cy="257.997" r="2.36394" transform="rotate(90 163.91 257.997)" fill="#F9674A"/>
<circle cx="192.277" cy="257.997" r="2.36394" transform="rotate(90 192.277 257.997)" fill="#F9674A"/>
<circle cx="135.542" cy="257.997" r="2.36394" transform="rotate(90 135.542 257.997)" fill="#F9674A"/>
<circle cx="206.456" cy="257.997" r="2.36394" transform="rotate(90 206.456 257.997)" fill="#F9674A"/>
<circle cx="149.722" cy="257.997" r="2.36394" transform="rotate(90 149.722 257.997)" fill="#F9674A"/>
<circle cx="178.089" cy="257.997" r="2.36394" transform="rotate(90 178.089 257.997)" fill="#F9674A"/>
<circle cx="121.355" cy="257.989" r="2.36394" transform="rotate(90 121.355 257.989)" fill="#F9674A"/>
<circle cx="220.644" cy="314.723" r="2.36394" transform="rotate(90 220.644 314.723)" fill="#F9674A"/>
<circle cx="163.91" cy="314.723" r="2.36394" transform="rotate(90 163.91 314.723)" fill="#F9674A"/>
<circle cx="192.277" cy="314.723" r="2.36394" transform="rotate(90 192.277 314.723)" fill="#F9674A"/>
<circle cx="135.542" cy="314.723" r="2.36394" transform="rotate(90 135.542 314.723)" fill="#F9674A"/>
<circle cx="206.464" cy="314.723" r="2.36394" transform="rotate(90 206.464 314.723)" fill="#F9674A"/>
<circle cx="149.722" cy="314.723" r="2.36394" transform="rotate(90 149.722 314.723)" fill="#F9674A"/>
<circle cx="178.097" cy="314.723" r="2.36394" transform="rotate(90 178.097 314.723)" fill="#F9674A"/>
<circle cx="121.355" cy="314.731" r="2.36394" transform="rotate(90 121.355 314.731)" fill="#F9674A"/>
<circle cx="220.644" cy="272.176" r="2.36394" transform="rotate(90 220.644 272.176)" fill="#F9674A"/>
<circle cx="163.91" cy="272.176" r="2.36394" transform="rotate(90 163.91 272.176)" fill="#F9674A"/>
<circle cx="192.277" cy="272.176" r="2.36394" transform="rotate(90 192.277 272.176)" fill="#F9674A"/>
<circle cx="135.542" cy="272.176" r="2.36394" transform="rotate(90 135.542 272.176)" fill="#F9674A"/>
<circle cx="206.464" cy="272.176" r="2.36394" transform="rotate(90 206.464 272.176)" fill="#F9674A"/>
<circle cx="149.722" cy="272.176" r="2.36394" transform="rotate(90 149.722 272.176)" fill="#F9674A"/>
<circle cx="178.089" cy="272.176" r="2.36394" transform="rotate(90 178.089 272.176)" fill="#F9674A"/>
<circle cx="121.355" cy="272.176" r="2.36394" transform="rotate(90 121.355 272.176)" fill="#F9674A"/>
<circle cx="220.644" cy="328.911" r="2.36394" transform="rotate(90 220.644 328.911)" fill="#F9674A"/>
<circle cx="163.91" cy="328.911" r="2.36394" transform="rotate(90 163.91 328.911)" fill="#F9674A"/>
<circle cx="192.277" cy="328.911" r="2.36394" transform="rotate(90 192.277 328.911)" fill="#F9674A"/>
<circle cx="135.55" cy="328.911" r="2.36394" transform="rotate(90 135.55 328.911)" fill="#F9674A"/>
<circle cx="206.464" cy="328.911" r="2.36394" transform="rotate(90 206.464 328.911)" fill="#F9674A"/>
<circle cx="149.73" cy="328.911" r="2.36394" transform="rotate(90 149.73 328.911)" fill="#F9674A"/>
<circle cx="178.089" cy="328.911" r="2.36394" transform="rotate(90 178.089 328.911)" fill="#F9674A"/>
<circle cx="121.363" cy="328.911" r="2.36394" transform="rotate(90 121.363 328.911)" fill="#F9674A"/>
</g>
<g clip-path="url(#clip4_3075_33363)">
<circle cx="107.167" cy="115.833" r="2.36394" transform="rotate(90 107.167 115.833)" fill="#F9674A"/>
<circle cx="50.4329" cy="115.833" r="2.36394" transform="rotate(90 50.4329 115.833)" fill="#F9674A"/>
<circle cx="78.8001" cy="115.833" r="2.36394" transform="rotate(90 78.8001 115.833)" fill="#F9674A"/>
<circle cx="22.0658" cy="115.833" r="2.36394" transform="rotate(90 22.0658 115.833)" fill="#F9674A"/>
<circle cx="92.9876" cy="115.833" r="2.36394" transform="rotate(90 92.9876 115.833)" fill="#F9674A"/>
<circle cx="36.2533" cy="115.833" r="2.36394" transform="rotate(90 36.2533 115.833)" fill="#F9674A"/>
<circle cx="64.6204" cy="115.833" r="2.36394" transform="rotate(90 64.6204 115.833)" fill="#F9674A"/>
<circle cx="7.88606" cy="115.833" r="2.36394" transform="rotate(90 7.88606 115.833)" fill="#F9674A"/>
<circle cx="107.167" cy="172.567" r="2.36394" transform="rotate(90 107.167 172.567)" fill="#F9674A"/>
<circle cx="50.4329" cy="172.567" r="2.36394" transform="rotate(90 50.4329 172.567)" fill="#F9674A"/>
<circle cx="78.8001" cy="172.567" r="2.36394" transform="rotate(90 78.8001 172.567)" fill="#F9674A"/>
<circle cx="22.0658" cy="172.567" r="2.36394" transform="rotate(90 22.0658 172.567)" fill="#F9674A"/>
<circle cx="92.9876" cy="172.567" r="2.36394" transform="rotate(90 92.9876 172.567)" fill="#F9674A"/>
<circle cx="36.2454" cy="172.567" r="2.36394" transform="rotate(90 36.2454 172.567)" fill="#F9674A"/>
<circle cx="64.6204" cy="172.567" r="2.36394" transform="rotate(90 64.6204 172.567)" fill="#F9674A"/>
<circle cx="7.87825" cy="172.567" r="2.36394" transform="rotate(90 7.87825 172.567)" fill="#F9674A"/>
<circle cx="107.167" cy="130.02" r="2.36394" transform="rotate(90 107.167 130.02)" fill="#F9674A"/>
<circle cx="50.4251" cy="130.02" r="2.36394" transform="rotate(90 50.4251 130.02)" fill="#F9674A"/>
<circle cx="78.8001" cy="130.012" r="2.36394" transform="rotate(90 78.8001 130.012)" fill="#F9674A"/>
<circle cx="22.0658" cy="130.012" r="2.36394" transform="rotate(90 22.0658 130.012)" fill="#F9674A"/>
<circle cx="92.9798" cy="130.012" r="2.36394" transform="rotate(90 92.9798 130.012)" fill="#F9674A"/>
<circle cx="36.2454" cy="130.012" r="2.36394" transform="rotate(90 36.2454 130.012)" fill="#F9674A"/>
<circle cx="64.6126" cy="130.012" r="2.36394" transform="rotate(90 64.6126 130.012)" fill="#F9674A"/>
<circle cx="7.87825" cy="130.012" r="2.36394" transform="rotate(90 7.87825 130.012)" fill="#F9674A"/>
<circle cx="107.167" cy="186.747" r="2.36394" transform="rotate(90 107.167 186.747)" fill="#F9674A"/>
<circle cx="50.4329" cy="186.747" r="2.36394" transform="rotate(90 50.4329 186.747)" fill="#F9674A"/>
<circle cx="78.8001" cy="186.747" r="2.36394" transform="rotate(90 78.8001 186.747)" fill="#F9674A"/>
<circle cx="22.0658" cy="186.747" r="2.36394" transform="rotate(90 22.0658 186.747)" fill="#F9674A"/>
<circle cx="92.9798" cy="186.747" r="2.36394" transform="rotate(90 92.9798 186.747)" fill="#F9674A"/>
<circle cx="36.2454" cy="186.747" r="2.36394" transform="rotate(90 36.2454 186.747)" fill="#F9674A"/>
<circle cx="64.6204" cy="186.747" r="2.36394" transform="rotate(90 64.6204 186.747)" fill="#F9674A"/>
<circle cx="7.87825" cy="186.747" r="2.36394" transform="rotate(90 7.87825 186.747)" fill="#F9674A"/>
<circle cx="107.167" cy="144.2" r="2.36394" transform="rotate(90 107.167 144.2)" fill="#F9674A"/>
<circle cx="50.4251" cy="144.2" r="2.36394" transform="rotate(90 50.4251 144.2)" fill="#F9674A"/>
<circle cx="78.8001" cy="144.2" r="2.36394" transform="rotate(90 78.8001 144.2)" fill="#F9674A"/>
<circle cx="22.0658" cy="144.2" r="2.36394" transform="rotate(90 22.0658 144.2)" fill="#F9674A"/>
<circle cx="92.9798" cy="144.2" r="2.36394" transform="rotate(90 92.9798 144.2)" fill="#F9674A"/>
<circle cx="36.2454" cy="144.2" r="2.36394" transform="rotate(90 36.2454 144.2)" fill="#F9674A"/>
<circle cx="64.6126" cy="144.2" r="2.36394" transform="rotate(90 64.6126 144.2)" fill="#F9674A"/>
<circle cx="7.87825" cy="144.2" r="2.36394" transform="rotate(90 7.87825 144.2)" fill="#F9674A"/>
<circle cx="107.167" cy="200.934" r="2.36394" transform="rotate(90 107.167 200.934)" fill="#F9674A"/>
<circle cx="50.4329" cy="200.926" r="2.36394" transform="rotate(90 50.4329 200.926)" fill="#F9674A"/>
<circle cx="78.8001" cy="200.926" r="2.36394" transform="rotate(90 78.8001 200.926)" fill="#F9674A"/>
<circle cx="22.0658" cy="200.926" r="2.36394" transform="rotate(90 22.0658 200.926)" fill="#F9674A"/>
<circle cx="92.9876" cy="200.926" r="2.36394" transform="rotate(90 92.9876 200.926)" fill="#F9674A"/>
<circle cx="36.2454" cy="200.926" r="2.36394" transform="rotate(90 36.2454 200.926)" fill="#F9674A"/>
<circle cx="64.6204" cy="200.926" r="2.36394" transform="rotate(90 64.6204 200.926)" fill="#F9674A"/>
<circle cx="7.87825" cy="200.934" r="2.36394" transform="rotate(90 7.87825 200.934)" fill="#F9674A"/>
<circle cx="107.167" cy="158.38" r="2.36394" transform="rotate(90 107.167 158.38)" fill="#F9674A"/>
<circle cx="50.4251" cy="158.38" r="2.36394" transform="rotate(90 50.4251 158.38)" fill="#F9674A"/>
<circle cx="78.8001" cy="158.38" r="2.36394" transform="rotate(90 78.8001 158.38)" fill="#F9674A"/>
<circle cx="22.0658" cy="158.38" r="2.36394" transform="rotate(90 22.0658 158.38)" fill="#F9674A"/>
<circle cx="92.9876" cy="158.38" r="2.36394" transform="rotate(90 92.9876 158.38)" fill="#F9674A"/>
<circle cx="36.2454" cy="158.38" r="2.36394" transform="rotate(90 36.2454 158.38)" fill="#F9674A"/>
<circle cx="64.6126" cy="158.38" r="2.36394" transform="rotate(90 64.6126 158.38)" fill="#F9674A"/>
<circle cx="7.87825" cy="158.38" r="2.36394" transform="rotate(90 7.87825 158.38)" fill="#F9674A"/>
<circle cx="107.167" cy="215.114" r="2.36394" transform="rotate(90 107.167 215.114)" fill="#F9674A"/>
<circle cx="50.4251" cy="215.114" r="2.36394" transform="rotate(90 50.4251 215.114)" fill="#F9674A"/>
<circle cx="78.8001" cy="215.114" r="2.36394" transform="rotate(90 78.8001 215.114)" fill="#F9674A"/>
<circle cx="22.0658" cy="215.114" r="2.36394" transform="rotate(90 22.0658 215.114)" fill="#F9674A"/>
<circle cx="92.9798" cy="215.114" r="2.36394" transform="rotate(90 92.9798 215.114)" fill="#F9674A"/>
<circle cx="36.2454" cy="215.114" r="2.36394" transform="rotate(90 36.2454 215.114)" fill="#F9674A"/>
<circle cx="64.6126" cy="215.114" r="2.36394" transform="rotate(90 64.6126 215.114)" fill="#F9674A"/>
<circle cx="7.87825" cy="215.114" r="2.36394" transform="rotate(90 7.87825 215.114)" fill="#F9674A"/>
</g>
<g clip-path="url(#clip5_3075_33363)">
<circle cx="107.167" cy="229.622" r="2.36394" transform="rotate(90 107.167 229.622)" fill="#F9674A"/>
<circle cx="50.4329" cy="229.622" r="2.36394" transform="rotate(90 50.4329 229.622)" fill="#F9674A"/>
<circle cx="78.8001" cy="229.622" r="2.36394" transform="rotate(90 78.8001 229.622)" fill="#F9674A"/>
<circle cx="22.0658" cy="229.622" r="2.36394" transform="rotate(90 22.0658 229.622)" fill="#F9674A"/>
<circle cx="92.9798" cy="229.622" r="2.36394" transform="rotate(90 92.9798 229.622)" fill="#F9674A"/>
<circle cx="36.2454" cy="229.622" r="2.36394" transform="rotate(90 36.2454 229.622)" fill="#F9674A"/>
<circle cx="64.6204" cy="229.622" r="2.36394" transform="rotate(90 64.6204 229.622)" fill="#F9674A"/>
<circle cx="7.88606" cy="229.622" r="2.36394" transform="rotate(90 7.88606 229.622)" fill="#F9674A"/>
<circle cx="107.167" cy="286.356" r="2.36394" transform="rotate(90 107.167 286.356)" fill="#F9674A"/>
<circle cx="50.4329" cy="286.356" r="2.36394" transform="rotate(90 50.4329 286.356)" fill="#F9674A"/>
<circle cx="78.8001" cy="286.356" r="2.36394" transform="rotate(90 78.8001 286.356)" fill="#F9674A"/>
<circle cx="22.0658" cy="286.356" r="2.36394" transform="rotate(90 22.0658 286.356)" fill="#F9674A"/>
<circle cx="92.9876" cy="286.356" r="2.36394" transform="rotate(90 92.9876 286.356)" fill="#F9674A"/>
<circle cx="36.2454" cy="286.356" r="2.36394" transform="rotate(90 36.2454 286.356)" fill="#F9674A"/>
<circle cx="64.6204" cy="286.356" r="2.36394" transform="rotate(90 64.6204 286.356)" fill="#F9674A"/>
<circle cx="7.87825" cy="286.356" r="2.36394" transform="rotate(90 7.87825 286.356)" fill="#F9674A"/>
<circle cx="107.167" cy="243.801" r="2.36394" transform="rotate(90 107.167 243.801)" fill="#F9674A"/>
<circle cx="50.4251" cy="243.809" r="2.36394" transform="rotate(90 50.4251 243.809)" fill="#F9674A"/>
<circle cx="78.8001" cy="243.801" r="2.36394" transform="rotate(90 78.8001 243.801)" fill="#F9674A"/>
<circle cx="22.0658" cy="243.801" r="2.36394" transform="rotate(90 22.0658 243.801)" fill="#F9674A"/>
<circle cx="92.9876" cy="243.801" r="2.36394" transform="rotate(90 92.9876 243.801)" fill="#F9674A"/>
<circle cx="36.2533" cy="243.801" r="2.36394" transform="rotate(90 36.2533 243.801)" fill="#F9674A"/>
<circle cx="64.6126" cy="243.801" r="2.36394" transform="rotate(90 64.6126 243.801)" fill="#F9674A"/>
<circle cx="7.87825" cy="243.801" r="2.36394" transform="rotate(90 7.87825 243.801)" fill="#F9674A"/>
<circle cx="107.167" cy="300.536" r="2.36394" transform="rotate(90 107.167 300.536)" fill="#F9674A"/>
<circle cx="50.4329" cy="300.536" r="2.36394" transform="rotate(90 50.4329 300.536)" fill="#F9674A"/>
<circle cx="78.8001" cy="300.536" r="2.36394" transform="rotate(90 78.8001 300.536)" fill="#F9674A"/>
<circle cx="22.0658" cy="300.536" r="2.36394" transform="rotate(90 22.0658 300.536)" fill="#F9674A"/>
<circle cx="92.9798" cy="300.536" r="2.36394" transform="rotate(90 92.9798 300.536)" fill="#F9674A"/>
<circle cx="36.2454" cy="300.536" r="2.36394" transform="rotate(90 36.2454 300.536)" fill="#F9674A"/>
<circle cx="64.6204" cy="300.536" r="2.36394" transform="rotate(90 64.6204 300.536)" fill="#F9674A"/>
<circle cx="7.87825" cy="300.536" r="2.36394" transform="rotate(90 7.87825 300.536)" fill="#F9674A"/>
<circle cx="107.167" cy="257.989" r="2.36394" transform="rotate(90 107.167 257.989)" fill="#F9674A"/>
<circle cx="50.4251" cy="257.989" r="2.36394" transform="rotate(90 50.4251 257.989)" fill="#F9674A"/>
<circle cx="78.8001" cy="257.989" r="2.36394" transform="rotate(90 78.8001 257.989)" fill="#F9674A"/>
<circle cx="22.0658" cy="257.989" r="2.36394" transform="rotate(90 22.0658 257.989)" fill="#F9674A"/>
<circle cx="92.9798" cy="257.989" r="2.36394" transform="rotate(90 92.9798 257.989)" fill="#F9674A"/>
<circle cx="36.2454" cy="257.989" r="2.36394" transform="rotate(90 36.2454 257.989)" fill="#F9674A"/>
<circle cx="64.6126" cy="257.989" r="2.36394" transform="rotate(90 64.6126 257.989)" fill="#F9674A"/>
<circle cx="7.87825" cy="257.989" r="2.36394" transform="rotate(90 7.87825 257.989)" fill="#F9674A"/>
<circle cx="107.167" cy="314.723" r="2.36394" transform="rotate(90 107.167 314.723)" fill="#F9674A"/>
<circle cx="50.4329" cy="314.715" r="2.36394" transform="rotate(90 50.4329 314.715)" fill="#F9674A"/>
<circle cx="78.8001" cy="314.715" r="2.36394" transform="rotate(90 78.8001 314.715)" fill="#F9674A"/>
<circle cx="22.0658" cy="314.715" r="2.36394" transform="rotate(90 22.0658 314.715)" fill="#F9674A"/>
<circle cx="92.9876" cy="314.715" r="2.36394" transform="rotate(90 92.9876 314.715)" fill="#F9674A"/>
<circle cx="36.2454" cy="314.715" r="2.36394" transform="rotate(90 36.2454 314.715)" fill="#F9674A"/>
<circle cx="64.6204" cy="314.715" r="2.36394" transform="rotate(90 64.6204 314.715)" fill="#F9674A"/>
<circle cx="7.87825" cy="314.723" r="2.36394" transform="rotate(90 7.87825 314.723)" fill="#F9674A"/>
<circle cx="107.167" cy="272.169" r="2.36394" transform="rotate(90 107.167 272.169)" fill="#F9674A"/>
<circle cx="50.4251" cy="272.169" r="2.36394" transform="rotate(90 50.4251 272.169)" fill="#F9674A"/>
<circle cx="78.8001" cy="272.169" r="2.36394" transform="rotate(90 78.8001 272.169)" fill="#F9674A"/>
<circle cx="22.0658" cy="272.169" r="2.36394" transform="rotate(90 22.0658 272.169)" fill="#F9674A"/>
<circle cx="92.9876" cy="272.169" r="2.36394" transform="rotate(90 92.9876 272.169)" fill="#F9674A"/>
<circle cx="36.2454" cy="272.169" r="2.36394" transform="rotate(90 36.2454 272.169)" fill="#F9674A"/>
<circle cx="64.6126" cy="272.169" r="2.36394" transform="rotate(90 64.6126 272.169)" fill="#F9674A"/>
<circle cx="7.87825" cy="272.169" r="2.36394" transform="rotate(90 7.87825 272.169)" fill="#F9674A"/>
<circle cx="107.167" cy="328.903" r="2.36394" transform="rotate(90 107.167 328.903)" fill="#F9674A"/>
<circle cx="50.4251" cy="328.903" r="2.36394" transform="rotate(90 50.4251 328.903)" fill="#F9674A"/>
<circle cx="78.8001" cy="328.903" r="2.36394" transform="rotate(90 78.8001 328.903)" fill="#F9674A"/>
<circle cx="22.0658" cy="328.903" r="2.36394" transform="rotate(90 22.0658 328.903)" fill="#F9674A"/>
<circle cx="92.9876" cy="328.903" r="2.36394" transform="rotate(90 92.9876 328.903)" fill="#F9674A"/>
<circle cx="36.2533" cy="328.903" r="2.36394" transform="rotate(90 36.2533 328.903)" fill="#F9674A"/>
<circle cx="64.6126" cy="328.903" r="2.36394" transform="rotate(90 64.6126 328.903)" fill="#F9674A"/>
<circle cx="7.88606" cy="328.903" r="2.36394" transform="rotate(90 7.88606 328.903)" fill="#F9674A"/>
</g>
<defs>
<clipPath id="clip0_3075_33363">
<rect width="108.741" height="108.741" fill="white" transform="translate(223) rotate(90)"/>
</clipPath>
<clipPath id="clip1_3075_33363">
<rect width="108.741" height="108.741" fill="white" transform="translate(109.531) rotate(90)"/>
</clipPath>
<clipPath id="clip2_3075_33363">
<rect width="108.741" height="108.741" fill="white" transform="translate(223 113.469) rotate(90)"/>
</clipPath>
<clipPath id="clip3_3075_33363">
<rect width="108.741" height="108.741" fill="white" transform="translate(223.008 227.266) rotate(90)"/>
</clipPath>
<clipPath id="clip4_3075_33363">
<rect width="108.741" height="108.741" fill="white" transform="translate(109.531 113.469) rotate(90)"/>
</clipPath>
<clipPath id="clip5_3075_33363">
<rect width="108.741" height="108.741" fill="white" transform="translate(109.531 227.258) rotate(90)"/>
</clipPath>
</defs>
</svg>
